G04 EAGLE Gerber RS-274X export*
G75*
%MOMM*%
%FSLAX34Y34*%
%LPD*%
%INSilkscreen Bottom*%
%IPPOS*%
%AMOC8*
5,1,8,0,0,1.08239X$1,22.5*%
G01*
%ADD10C,0.200000*%
%ADD11C,0.076200*%
%ADD12C,0.120000*%
%ADD13C,0.050800*%


D10*
X80600Y140970D02*
X80602Y141033D01*
X80608Y141095D01*
X80618Y141157D01*
X80631Y141219D01*
X80649Y141279D01*
X80670Y141338D01*
X80695Y141396D01*
X80724Y141452D01*
X80756Y141506D01*
X80791Y141558D01*
X80829Y141607D01*
X80871Y141655D01*
X80915Y141699D01*
X80963Y141741D01*
X81012Y141779D01*
X81064Y141814D01*
X81118Y141846D01*
X81174Y141875D01*
X81232Y141900D01*
X81291Y141921D01*
X81351Y141939D01*
X81413Y141952D01*
X81475Y141962D01*
X81537Y141968D01*
X81600Y141970D01*
X81663Y141968D01*
X81725Y141962D01*
X81787Y141952D01*
X81849Y141939D01*
X81909Y141921D01*
X81968Y141900D01*
X82026Y141875D01*
X82082Y141846D01*
X82136Y141814D01*
X82188Y141779D01*
X82237Y141741D01*
X82285Y141699D01*
X82329Y141655D01*
X82371Y141607D01*
X82409Y141558D01*
X82444Y141506D01*
X82476Y141452D01*
X82505Y141396D01*
X82530Y141338D01*
X82551Y141279D01*
X82569Y141219D01*
X82582Y141157D01*
X82592Y141095D01*
X82598Y141033D01*
X82600Y140970D01*
X82598Y140907D01*
X82592Y140845D01*
X82582Y140783D01*
X82569Y140721D01*
X82551Y140661D01*
X82530Y140602D01*
X82505Y140544D01*
X82476Y140488D01*
X82444Y140434D01*
X82409Y140382D01*
X82371Y140333D01*
X82329Y140285D01*
X82285Y140241D01*
X82237Y140199D01*
X82188Y140161D01*
X82136Y140126D01*
X82082Y140094D01*
X82026Y140065D01*
X81968Y140040D01*
X81909Y140019D01*
X81849Y140001D01*
X81787Y139988D01*
X81725Y139978D01*
X81663Y139972D01*
X81600Y139970D01*
X81537Y139972D01*
X81475Y139978D01*
X81413Y139988D01*
X81351Y140001D01*
X81291Y140019D01*
X81232Y140040D01*
X81174Y140065D01*
X81118Y140094D01*
X81064Y140126D01*
X81012Y140161D01*
X80963Y140199D01*
X80915Y140241D01*
X80871Y140285D01*
X80829Y140333D01*
X80791Y140382D01*
X80756Y140434D01*
X80724Y140488D01*
X80695Y140544D01*
X80670Y140602D01*
X80649Y140661D01*
X80631Y140721D01*
X80618Y140783D01*
X80608Y140845D01*
X80602Y140907D01*
X80600Y140970D01*
X69600Y220470D02*
X159000Y220470D01*
D11*
X74421Y156565D02*
X74421Y152416D01*
X74423Y152350D01*
X74428Y152283D01*
X74438Y152218D01*
X74451Y152152D01*
X74467Y152088D01*
X74488Y152025D01*
X74511Y151963D01*
X74538Y151902D01*
X74569Y151843D01*
X74603Y151786D01*
X74640Y151730D01*
X74680Y151677D01*
X74722Y151626D01*
X74768Y151578D01*
X74816Y151532D01*
X74867Y151490D01*
X74920Y151450D01*
X74976Y151413D01*
X75033Y151379D01*
X75092Y151348D01*
X75153Y151321D01*
X75215Y151297D01*
X75278Y151277D01*
X75342Y151261D01*
X75408Y151248D01*
X75473Y151238D01*
X75540Y151233D01*
X75606Y151231D01*
X76199Y151231D01*
X71744Y155380D02*
X70262Y156565D01*
X70262Y151231D01*
X71744Y151231D02*
X68780Y151231D01*
D12*
X125820Y94670D02*
X130720Y94670D01*
X130720Y85670D02*
X125820Y85670D01*
D13*
X134366Y99314D02*
X134366Y104902D01*
X132814Y104902D01*
X132737Y104900D01*
X132659Y104894D01*
X132583Y104885D01*
X132506Y104871D01*
X132431Y104854D01*
X132357Y104833D01*
X132283Y104808D01*
X132211Y104780D01*
X132141Y104748D01*
X132072Y104713D01*
X132005Y104674D01*
X131940Y104632D01*
X131877Y104587D01*
X131816Y104539D01*
X131758Y104488D01*
X131703Y104434D01*
X131650Y104377D01*
X131601Y104318D01*
X131554Y104256D01*
X131510Y104192D01*
X131470Y104126D01*
X131433Y104058D01*
X131399Y103988D01*
X131369Y103917D01*
X131343Y103844D01*
X131320Y103770D01*
X131301Y103695D01*
X131286Y103620D01*
X131274Y103543D01*
X131266Y103466D01*
X131262Y103389D01*
X131262Y103311D01*
X131266Y103234D01*
X131274Y103157D01*
X131286Y103080D01*
X131301Y103005D01*
X131320Y102930D01*
X131343Y102856D01*
X131369Y102783D01*
X131399Y102712D01*
X131433Y102642D01*
X131470Y102574D01*
X131510Y102508D01*
X131554Y102444D01*
X131601Y102382D01*
X131650Y102323D01*
X131703Y102266D01*
X131758Y102212D01*
X131816Y102161D01*
X131877Y102113D01*
X131940Y102068D01*
X132005Y102026D01*
X132072Y101987D01*
X132141Y101952D01*
X132211Y101920D01*
X132283Y101892D01*
X132357Y101867D01*
X132431Y101846D01*
X132506Y101829D01*
X132583Y101815D01*
X132659Y101806D01*
X132737Y101800D01*
X132814Y101798D01*
X134366Y101798D01*
X132503Y101798D02*
X131262Y99314D01*
X128916Y103660D02*
X127364Y104902D01*
X127364Y99314D01*
X128916Y99314D02*
X125811Y99314D01*
D12*
X102450Y94670D02*
X97550Y94670D01*
X97550Y85670D02*
X102450Y85670D01*
D13*
X107366Y99314D02*
X107366Y104902D01*
X105814Y104902D01*
X105737Y104900D01*
X105659Y104894D01*
X105583Y104885D01*
X105506Y104871D01*
X105431Y104854D01*
X105357Y104833D01*
X105283Y104808D01*
X105211Y104780D01*
X105141Y104748D01*
X105072Y104713D01*
X105005Y104674D01*
X104940Y104632D01*
X104877Y104587D01*
X104816Y104539D01*
X104758Y104488D01*
X104703Y104434D01*
X104650Y104377D01*
X104601Y104318D01*
X104554Y104256D01*
X104510Y104192D01*
X104470Y104126D01*
X104433Y104058D01*
X104399Y103988D01*
X104369Y103917D01*
X104343Y103844D01*
X104320Y103770D01*
X104301Y103695D01*
X104286Y103620D01*
X104274Y103543D01*
X104266Y103466D01*
X104262Y103389D01*
X104262Y103311D01*
X104266Y103234D01*
X104274Y103157D01*
X104286Y103080D01*
X104301Y103005D01*
X104320Y102930D01*
X104343Y102856D01*
X104369Y102783D01*
X104399Y102712D01*
X104433Y102642D01*
X104470Y102574D01*
X104510Y102508D01*
X104554Y102444D01*
X104601Y102382D01*
X104650Y102323D01*
X104703Y102266D01*
X104758Y102212D01*
X104816Y102161D01*
X104877Y102113D01*
X104940Y102068D01*
X105005Y102026D01*
X105072Y101987D01*
X105141Y101952D01*
X105211Y101920D01*
X105283Y101892D01*
X105357Y101867D01*
X105431Y101846D01*
X105506Y101829D01*
X105583Y101815D01*
X105659Y101806D01*
X105737Y101800D01*
X105814Y101798D01*
X107366Y101798D01*
X105503Y101798D02*
X104262Y99314D01*
X98811Y103505D02*
X98813Y103578D01*
X98819Y103651D01*
X98828Y103724D01*
X98842Y103795D01*
X98859Y103867D01*
X98879Y103937D01*
X98904Y104006D01*
X98932Y104073D01*
X98963Y104139D01*
X98998Y104204D01*
X99036Y104266D01*
X99078Y104326D01*
X99122Y104384D01*
X99170Y104440D01*
X99220Y104493D01*
X99273Y104543D01*
X99329Y104591D01*
X99387Y104635D01*
X99447Y104677D01*
X99510Y104715D01*
X99574Y104750D01*
X99640Y104781D01*
X99707Y104809D01*
X99776Y104834D01*
X99846Y104854D01*
X99918Y104871D01*
X99989Y104885D01*
X100062Y104894D01*
X100135Y104900D01*
X100208Y104902D01*
X100292Y104900D01*
X100375Y104894D01*
X100458Y104885D01*
X100540Y104871D01*
X100622Y104854D01*
X100703Y104832D01*
X100783Y104807D01*
X100861Y104779D01*
X100939Y104747D01*
X101014Y104711D01*
X101088Y104672D01*
X101160Y104629D01*
X101230Y104583D01*
X101297Y104534D01*
X101363Y104481D01*
X101425Y104426D01*
X101485Y104368D01*
X101543Y104307D01*
X101597Y104244D01*
X101649Y104178D01*
X101697Y104110D01*
X101742Y104039D01*
X101784Y103967D01*
X101822Y103892D01*
X101857Y103816D01*
X101888Y103739D01*
X101916Y103660D01*
X99278Y102419D02*
X99224Y102472D01*
X99173Y102529D01*
X99125Y102588D01*
X99080Y102649D01*
X99039Y102712D01*
X99000Y102778D01*
X98965Y102845D01*
X98933Y102914D01*
X98905Y102985D01*
X98881Y103056D01*
X98860Y103129D01*
X98843Y103203D01*
X98829Y103278D01*
X98820Y103353D01*
X98814Y103429D01*
X98812Y103505D01*
X99277Y102418D02*
X101916Y99314D01*
X98811Y99314D01*
M02*
