G04 EAGLE Gerber RS-274X export*
G75*
%MOMM*%
%FSLAX34Y34*%
%LPD*%
%INSilkscreen Top*%
%IPPOS*%
%AMOC8*
5,1,8,0,0,1.08239X$1,22.5*%
G01*
%ADD10C,0.130000*%
%ADD11C,0.152400*%
%ADD12C,0.050800*%
%ADD13C,0.127000*%
%ADD14C,0.200000*%


D10*
X71120Y0D02*
X256990Y0D01*
X256990Y30480D02*
X71120Y30480D01*
X237490Y-650D02*
X237490Y-52000D01*
X237490Y31130D02*
X237490Y106108D01*
X237490Y-650D02*
X234298Y-26000D01*
X240682Y-26000D01*
X237490Y-650D01*
X236190Y-26000D01*
X238790Y-26000D02*
X237490Y-650D01*
X234890Y-26000D01*
X240090Y-26000D02*
X237490Y-650D01*
X237490Y31130D02*
X234298Y56480D01*
X240682Y56480D01*
X237490Y31130D01*
X236190Y56480D01*
X238790Y56480D02*
X237490Y31130D01*
X234890Y56480D01*
X240090Y56480D02*
X237490Y31130D01*
D11*
X230983Y57242D02*
X230983Y61758D01*
X230981Y61891D01*
X230975Y62023D01*
X230965Y62155D01*
X230952Y62287D01*
X230934Y62419D01*
X230913Y62549D01*
X230888Y62680D01*
X230859Y62809D01*
X230826Y62937D01*
X230790Y63065D01*
X230750Y63191D01*
X230706Y63316D01*
X230658Y63440D01*
X230607Y63562D01*
X230552Y63683D01*
X230494Y63802D01*
X230432Y63920D01*
X230367Y64035D01*
X230298Y64149D01*
X230227Y64260D01*
X230151Y64369D01*
X230073Y64476D01*
X229992Y64581D01*
X229907Y64683D01*
X229820Y64783D01*
X229730Y64880D01*
X229637Y64975D01*
X229541Y65066D01*
X229443Y65155D01*
X229342Y65241D01*
X229238Y65324D01*
X229132Y65404D01*
X229024Y65480D01*
X228914Y65554D01*
X228801Y65624D01*
X228687Y65691D01*
X228570Y65754D01*
X228452Y65814D01*
X228332Y65871D01*
X228210Y65924D01*
X228087Y65973D01*
X227963Y66019D01*
X227837Y66061D01*
X227710Y66099D01*
X227582Y66134D01*
X227453Y66165D01*
X227324Y66192D01*
X227193Y66215D01*
X227062Y66235D01*
X226930Y66250D01*
X226798Y66262D01*
X226666Y66270D01*
X226533Y66274D01*
X226401Y66274D01*
X226268Y66270D01*
X226136Y66262D01*
X226004Y66250D01*
X225872Y66235D01*
X225741Y66215D01*
X225610Y66192D01*
X225481Y66165D01*
X225352Y66134D01*
X225224Y66099D01*
X225097Y66061D01*
X224971Y66019D01*
X224847Y65973D01*
X224724Y65924D01*
X224602Y65871D01*
X224482Y65814D01*
X224364Y65754D01*
X224247Y65691D01*
X224133Y65624D01*
X224020Y65554D01*
X223910Y65480D01*
X223802Y65404D01*
X223696Y65324D01*
X223592Y65241D01*
X223491Y65155D01*
X223393Y65066D01*
X223297Y64975D01*
X223204Y64880D01*
X223114Y64783D01*
X223027Y64683D01*
X222942Y64581D01*
X222861Y64476D01*
X222783Y64369D01*
X222707Y64260D01*
X222636Y64149D01*
X222567Y64035D01*
X222502Y63920D01*
X222440Y63802D01*
X222382Y63683D01*
X222327Y63562D01*
X222276Y63440D01*
X222228Y63316D01*
X222184Y63191D01*
X222144Y63065D01*
X222108Y62937D01*
X222075Y62809D01*
X222046Y62680D01*
X222021Y62549D01*
X222000Y62419D01*
X221982Y62287D01*
X221969Y62155D01*
X221959Y62023D01*
X221953Y61891D01*
X221951Y61758D01*
X214727Y62661D02*
X214727Y57242D01*
X214727Y62661D02*
X214729Y62780D01*
X214735Y62900D01*
X214745Y63019D01*
X214759Y63137D01*
X214776Y63256D01*
X214798Y63373D01*
X214823Y63490D01*
X214853Y63605D01*
X214886Y63720D01*
X214923Y63834D01*
X214963Y63946D01*
X215008Y64057D01*
X215056Y64166D01*
X215107Y64274D01*
X215162Y64380D01*
X215221Y64484D01*
X215283Y64586D01*
X215348Y64686D01*
X215417Y64784D01*
X215489Y64880D01*
X215564Y64973D01*
X215641Y65063D01*
X215722Y65151D01*
X215806Y65236D01*
X215893Y65318D01*
X215982Y65398D01*
X216074Y65474D01*
X216168Y65548D01*
X216265Y65618D01*
X216363Y65685D01*
X216464Y65749D01*
X216568Y65809D01*
X216673Y65866D01*
X216780Y65919D01*
X216888Y65969D01*
X216998Y66015D01*
X217110Y66057D01*
X217223Y66096D01*
X217337Y66131D01*
X217452Y66162D01*
X217569Y66190D01*
X217686Y66213D01*
X217803Y66233D01*
X217922Y66249D01*
X218041Y66261D01*
X218160Y66269D01*
X218279Y66273D01*
X218399Y66273D01*
X218518Y66269D01*
X218637Y66261D01*
X218756Y66249D01*
X218875Y66233D01*
X218992Y66213D01*
X219109Y66190D01*
X219226Y66162D01*
X219341Y66131D01*
X219455Y66096D01*
X219568Y66057D01*
X219680Y66015D01*
X219790Y65969D01*
X219898Y65919D01*
X220005Y65866D01*
X220110Y65809D01*
X220214Y65749D01*
X220315Y65685D01*
X220413Y65618D01*
X220510Y65548D01*
X220604Y65474D01*
X220696Y65398D01*
X220785Y65318D01*
X220872Y65236D01*
X220956Y65151D01*
X221037Y65063D01*
X221114Y64973D01*
X221189Y64880D01*
X221261Y64784D01*
X221330Y64686D01*
X221395Y64586D01*
X221457Y64484D01*
X221516Y64380D01*
X221571Y64274D01*
X221622Y64166D01*
X221670Y64057D01*
X221715Y63946D01*
X221755Y63834D01*
X221792Y63720D01*
X221825Y63605D01*
X221855Y63490D01*
X221880Y63373D01*
X221902Y63256D01*
X221919Y63137D01*
X221933Y63019D01*
X221943Y62900D01*
X221949Y62780D01*
X221951Y62661D01*
X221952Y62661D02*
X221952Y59048D01*
X230080Y72248D02*
X230983Y72248D01*
X230080Y72248D02*
X230080Y73151D01*
X230983Y73151D01*
X230983Y72248D01*
X222855Y79126D02*
X222535Y79130D01*
X222216Y79141D01*
X221896Y79160D01*
X221578Y79187D01*
X221260Y79221D01*
X220943Y79263D01*
X220627Y79313D01*
X220312Y79370D01*
X219999Y79434D01*
X219687Y79506D01*
X219377Y79585D01*
X219070Y79672D01*
X218764Y79766D01*
X218461Y79867D01*
X218160Y79976D01*
X217862Y80091D01*
X217566Y80214D01*
X217274Y80344D01*
X216985Y80481D01*
X216984Y80481D02*
X216876Y80520D01*
X216769Y80563D01*
X216664Y80609D01*
X216561Y80659D01*
X216459Y80713D01*
X216359Y80770D01*
X216261Y80831D01*
X216165Y80895D01*
X216072Y80962D01*
X215981Y81032D01*
X215892Y81106D01*
X215806Y81182D01*
X215723Y81262D01*
X215642Y81344D01*
X215564Y81429D01*
X215490Y81516D01*
X215418Y81607D01*
X215349Y81699D01*
X215284Y81794D01*
X215222Y81891D01*
X215163Y81990D01*
X215108Y82091D01*
X215057Y82194D01*
X215009Y82299D01*
X214964Y82405D01*
X214923Y82512D01*
X214886Y82621D01*
X214853Y82732D01*
X214824Y82843D01*
X214798Y82955D01*
X214776Y83068D01*
X214759Y83182D01*
X214745Y83296D01*
X214735Y83411D01*
X214729Y83526D01*
X214727Y83641D01*
X214729Y83756D01*
X214735Y83871D01*
X214745Y83986D01*
X214759Y84100D01*
X214776Y84214D01*
X214798Y84327D01*
X214824Y84439D01*
X214853Y84551D01*
X214886Y84661D01*
X214923Y84770D01*
X214964Y84878D01*
X215009Y84984D01*
X215057Y85089D01*
X215108Y85191D01*
X215164Y85293D01*
X215222Y85392D01*
X215284Y85489D01*
X215350Y85584D01*
X215418Y85676D01*
X215490Y85766D01*
X215564Y85854D01*
X215642Y85939D01*
X215723Y86021D01*
X215806Y86100D01*
X215892Y86177D01*
X215981Y86250D01*
X216072Y86321D01*
X216166Y86388D01*
X216261Y86452D01*
X216359Y86513D01*
X216459Y86570D01*
X216561Y86623D01*
X216665Y86674D01*
X216770Y86720D01*
X216877Y86763D01*
X216985Y86802D01*
X216985Y86801D02*
X217274Y86938D01*
X217566Y87068D01*
X217862Y87191D01*
X218160Y87306D01*
X218461Y87415D01*
X218764Y87516D01*
X219070Y87610D01*
X219377Y87697D01*
X219687Y87776D01*
X219999Y87848D01*
X220312Y87912D01*
X220627Y87969D01*
X220943Y88019D01*
X221260Y88061D01*
X221578Y88095D01*
X221896Y88122D01*
X222216Y88141D01*
X222535Y88152D01*
X222855Y88156D01*
X222855Y79126D02*
X223175Y79130D01*
X223494Y79141D01*
X223814Y79160D01*
X224132Y79187D01*
X224450Y79221D01*
X224767Y79263D01*
X225083Y79313D01*
X225398Y79370D01*
X225711Y79434D01*
X226023Y79506D01*
X226333Y79585D01*
X226640Y79672D01*
X226946Y79766D01*
X227249Y79867D01*
X227550Y79976D01*
X227848Y80091D01*
X228144Y80214D01*
X228436Y80344D01*
X228725Y80481D01*
X228726Y80480D02*
X228834Y80519D01*
X228941Y80562D01*
X229046Y80608D01*
X229150Y80659D01*
X229252Y80712D01*
X229352Y80769D01*
X229450Y80830D01*
X229545Y80894D01*
X229639Y80961D01*
X229730Y81032D01*
X229819Y81105D01*
X229905Y81182D01*
X229988Y81261D01*
X230069Y81343D01*
X230147Y81428D01*
X230221Y81516D01*
X230293Y81606D01*
X230362Y81699D01*
X230427Y81793D01*
X230489Y81890D01*
X230547Y81990D01*
X230603Y82091D01*
X230654Y82193D01*
X230702Y82298D01*
X230747Y82404D01*
X230788Y82512D01*
X230825Y82621D01*
X230858Y82731D01*
X230887Y82843D01*
X230913Y82955D01*
X230935Y83068D01*
X230952Y83182D01*
X230966Y83296D01*
X230976Y83411D01*
X230982Y83526D01*
X230984Y83641D01*
X228725Y86801D02*
X228436Y86938D01*
X228144Y87068D01*
X227848Y87191D01*
X227550Y87306D01*
X227249Y87415D01*
X226946Y87516D01*
X226640Y87610D01*
X226333Y87697D01*
X226023Y87776D01*
X225711Y87848D01*
X225398Y87912D01*
X225083Y87969D01*
X224767Y88019D01*
X224450Y88061D01*
X224132Y88095D01*
X223814Y88122D01*
X223494Y88141D01*
X223175Y88152D01*
X222855Y88156D01*
X228725Y86802D02*
X228833Y86763D01*
X228940Y86720D01*
X229045Y86674D01*
X229149Y86623D01*
X229251Y86570D01*
X229351Y86513D01*
X229449Y86452D01*
X229544Y86388D01*
X229638Y86321D01*
X229729Y86250D01*
X229818Y86177D01*
X229904Y86100D01*
X229987Y86021D01*
X230068Y85939D01*
X230146Y85854D01*
X230220Y85766D01*
X230292Y85676D01*
X230361Y85583D01*
X230426Y85489D01*
X230488Y85392D01*
X230546Y85292D01*
X230602Y85191D01*
X230653Y85088D01*
X230701Y84984D01*
X230746Y84878D01*
X230787Y84770D01*
X230824Y84661D01*
X230857Y84551D01*
X230886Y84439D01*
X230912Y84327D01*
X230934Y84214D01*
X230951Y84100D01*
X230965Y83986D01*
X230975Y83871D01*
X230981Y83756D01*
X230983Y83641D01*
X227371Y80029D02*
X218339Y87254D01*
X230983Y94757D02*
X230983Y100176D01*
X230981Y100294D01*
X230975Y100412D01*
X230966Y100530D01*
X230952Y100647D01*
X230935Y100764D01*
X230914Y100881D01*
X230889Y100996D01*
X230860Y101111D01*
X230827Y101225D01*
X230791Y101337D01*
X230751Y101448D01*
X230708Y101558D01*
X230661Y101667D01*
X230611Y101774D01*
X230556Y101879D01*
X230499Y101982D01*
X230438Y102083D01*
X230374Y102183D01*
X230307Y102280D01*
X230237Y102375D01*
X230163Y102467D01*
X230087Y102558D01*
X230007Y102645D01*
X229925Y102730D01*
X229840Y102812D01*
X229753Y102892D01*
X229662Y102968D01*
X229570Y103042D01*
X229475Y103112D01*
X229378Y103179D01*
X229278Y103243D01*
X229177Y103304D01*
X229074Y103361D01*
X228969Y103416D01*
X228862Y103466D01*
X228753Y103513D01*
X228643Y103556D01*
X228532Y103596D01*
X228420Y103632D01*
X228306Y103665D01*
X228191Y103694D01*
X228076Y103719D01*
X227959Y103740D01*
X227842Y103757D01*
X227725Y103771D01*
X227607Y103780D01*
X227489Y103786D01*
X227371Y103788D01*
X225564Y103788D01*
X225446Y103786D01*
X225328Y103780D01*
X225210Y103771D01*
X225093Y103757D01*
X224976Y103740D01*
X224859Y103719D01*
X224744Y103694D01*
X224629Y103665D01*
X224515Y103632D01*
X224403Y103596D01*
X224292Y103556D01*
X224182Y103513D01*
X224073Y103466D01*
X223966Y103416D01*
X223861Y103361D01*
X223758Y103304D01*
X223657Y103243D01*
X223557Y103179D01*
X223460Y103112D01*
X223365Y103042D01*
X223273Y102968D01*
X223182Y102892D01*
X223095Y102812D01*
X223010Y102730D01*
X222928Y102645D01*
X222848Y102558D01*
X222772Y102467D01*
X222698Y102375D01*
X222628Y102280D01*
X222561Y102183D01*
X222497Y102083D01*
X222436Y101982D01*
X222379Y101879D01*
X222324Y101774D01*
X222274Y101667D01*
X222227Y101558D01*
X222184Y101448D01*
X222144Y101337D01*
X222108Y101225D01*
X222075Y101111D01*
X222046Y100996D01*
X222021Y100881D01*
X222000Y100764D01*
X221983Y100647D01*
X221969Y100530D01*
X221960Y100412D01*
X221954Y100294D01*
X221952Y100176D01*
X221952Y94757D01*
X214727Y94757D01*
X214727Y103788D01*
D12*
X187142Y147574D02*
X187142Y149126D01*
X187144Y149203D01*
X187150Y149281D01*
X187159Y149357D01*
X187173Y149434D01*
X187190Y149509D01*
X187211Y149583D01*
X187236Y149657D01*
X187264Y149729D01*
X187296Y149799D01*
X187331Y149868D01*
X187370Y149935D01*
X187412Y150000D01*
X187457Y150063D01*
X187505Y150124D01*
X187556Y150182D01*
X187610Y150237D01*
X187667Y150290D01*
X187726Y150339D01*
X187788Y150386D01*
X187852Y150430D01*
X187918Y150470D01*
X187986Y150507D01*
X188056Y150541D01*
X188127Y150571D01*
X188200Y150597D01*
X188274Y150620D01*
X188349Y150639D01*
X188424Y150654D01*
X188501Y150666D01*
X188578Y150674D01*
X188655Y150678D01*
X188733Y150678D01*
X188810Y150674D01*
X188887Y150666D01*
X188964Y150654D01*
X189039Y150639D01*
X189114Y150620D01*
X189188Y150597D01*
X189261Y150571D01*
X189332Y150541D01*
X189402Y150507D01*
X189470Y150470D01*
X189536Y150430D01*
X189600Y150386D01*
X189662Y150339D01*
X189721Y150290D01*
X189778Y150237D01*
X189832Y150182D01*
X189883Y150124D01*
X189931Y150063D01*
X189976Y150000D01*
X190018Y149935D01*
X190057Y149868D01*
X190092Y149799D01*
X190124Y149729D01*
X190152Y149657D01*
X190177Y149583D01*
X190198Y149509D01*
X190215Y149434D01*
X190229Y149357D01*
X190238Y149281D01*
X190244Y149203D01*
X190246Y149126D01*
X190246Y147574D01*
X184658Y147574D01*
X184658Y149126D01*
X184660Y149196D01*
X184666Y149265D01*
X184676Y149334D01*
X184689Y149402D01*
X184707Y149470D01*
X184728Y149536D01*
X184753Y149601D01*
X184781Y149665D01*
X184813Y149727D01*
X184848Y149787D01*
X184887Y149845D01*
X184929Y149900D01*
X184974Y149954D01*
X185022Y150004D01*
X185072Y150052D01*
X185126Y150097D01*
X185181Y150139D01*
X185239Y150178D01*
X185299Y150213D01*
X185361Y150245D01*
X185425Y150273D01*
X185490Y150298D01*
X185556Y150319D01*
X185624Y150337D01*
X185692Y150350D01*
X185761Y150360D01*
X185830Y150366D01*
X185900Y150368D01*
X185970Y150366D01*
X186039Y150360D01*
X186108Y150350D01*
X186176Y150337D01*
X186244Y150319D01*
X186310Y150298D01*
X186375Y150273D01*
X186439Y150245D01*
X186501Y150213D01*
X186561Y150178D01*
X186619Y150139D01*
X186674Y150097D01*
X186728Y150052D01*
X186778Y150004D01*
X186826Y149954D01*
X186871Y149900D01*
X186913Y149845D01*
X186952Y149787D01*
X186987Y149727D01*
X187019Y149665D01*
X187047Y149601D01*
X187072Y149536D01*
X187093Y149470D01*
X187111Y149402D01*
X187124Y149334D01*
X187134Y149265D01*
X187140Y149196D01*
X187142Y149126D01*
X192109Y152556D02*
X192109Y153177D01*
X186521Y155040D01*
X186521Y152556D02*
X190246Y153798D01*
X190246Y160293D02*
X184658Y160293D01*
X184658Y161845D01*
X184660Y161921D01*
X184665Y161997D01*
X184675Y162073D01*
X184688Y162148D01*
X184705Y162222D01*
X184725Y162296D01*
X184749Y162368D01*
X184776Y162439D01*
X184807Y162509D01*
X184841Y162577D01*
X184879Y162643D01*
X184920Y162707D01*
X184963Y162770D01*
X185010Y162830D01*
X185060Y162887D01*
X185113Y162942D01*
X185168Y162995D01*
X185225Y163045D01*
X185285Y163092D01*
X185348Y163135D01*
X185412Y163176D01*
X185478Y163214D01*
X185546Y163248D01*
X185616Y163279D01*
X185687Y163306D01*
X185760Y163330D01*
X185833Y163350D01*
X185907Y163367D01*
X185982Y163380D01*
X186058Y163390D01*
X186134Y163395D01*
X186210Y163397D01*
X188694Y163397D01*
X188770Y163395D01*
X188846Y163390D01*
X188922Y163380D01*
X188997Y163367D01*
X189071Y163350D01*
X189145Y163330D01*
X189217Y163306D01*
X189288Y163279D01*
X189358Y163248D01*
X189426Y163214D01*
X189492Y163176D01*
X189556Y163135D01*
X189619Y163092D01*
X189679Y163045D01*
X189736Y162995D01*
X189791Y162942D01*
X189844Y162887D01*
X189894Y162830D01*
X189941Y162770D01*
X189984Y162707D01*
X190025Y162643D01*
X190063Y162577D01*
X190097Y162509D01*
X190128Y162439D01*
X190155Y162368D01*
X190179Y162296D01*
X190199Y162222D01*
X190216Y162148D01*
X190229Y162073D01*
X190239Y161997D01*
X190244Y161921D01*
X190246Y161845D01*
X190246Y160293D01*
X189004Y165906D02*
X187762Y165906D01*
X187692Y165908D01*
X187623Y165914D01*
X187554Y165924D01*
X187486Y165937D01*
X187418Y165955D01*
X187352Y165976D01*
X187287Y166001D01*
X187223Y166029D01*
X187161Y166061D01*
X187101Y166096D01*
X187043Y166135D01*
X186988Y166177D01*
X186934Y166222D01*
X186884Y166270D01*
X186836Y166320D01*
X186791Y166374D01*
X186749Y166429D01*
X186710Y166487D01*
X186675Y166547D01*
X186643Y166609D01*
X186615Y166673D01*
X186590Y166738D01*
X186569Y166804D01*
X186551Y166872D01*
X186538Y166940D01*
X186528Y167009D01*
X186522Y167078D01*
X186520Y167148D01*
X186522Y167218D01*
X186528Y167287D01*
X186538Y167356D01*
X186551Y167424D01*
X186569Y167492D01*
X186590Y167558D01*
X186615Y167623D01*
X186643Y167687D01*
X186675Y167749D01*
X186710Y167809D01*
X186749Y167867D01*
X186791Y167922D01*
X186836Y167976D01*
X186884Y168026D01*
X186934Y168074D01*
X186988Y168119D01*
X187043Y168161D01*
X187101Y168200D01*
X187161Y168235D01*
X187223Y168267D01*
X187287Y168295D01*
X187352Y168320D01*
X187418Y168341D01*
X187486Y168359D01*
X187554Y168372D01*
X187623Y168382D01*
X187692Y168388D01*
X187762Y168390D01*
X189004Y168390D01*
X189074Y168388D01*
X189143Y168382D01*
X189212Y168372D01*
X189280Y168359D01*
X189348Y168341D01*
X189414Y168320D01*
X189479Y168295D01*
X189543Y168267D01*
X189605Y168235D01*
X189665Y168200D01*
X189723Y168161D01*
X189778Y168119D01*
X189832Y168074D01*
X189882Y168026D01*
X189930Y167976D01*
X189975Y167922D01*
X190017Y167867D01*
X190056Y167809D01*
X190091Y167749D01*
X190123Y167687D01*
X190151Y167623D01*
X190176Y167558D01*
X190197Y167492D01*
X190215Y167424D01*
X190228Y167356D01*
X190238Y167287D01*
X190244Y167218D01*
X190246Y167148D01*
X190244Y167078D01*
X190238Y167009D01*
X190228Y166940D01*
X190215Y166872D01*
X190197Y166804D01*
X190176Y166738D01*
X190151Y166673D01*
X190123Y166609D01*
X190091Y166547D01*
X190056Y166487D01*
X190017Y166429D01*
X189975Y166374D01*
X189930Y166320D01*
X189882Y166270D01*
X189832Y166222D01*
X189778Y166177D01*
X189723Y166135D01*
X189665Y166096D01*
X189605Y166061D01*
X189543Y166029D01*
X189479Y166001D01*
X189414Y165976D01*
X189348Y165955D01*
X189280Y165937D01*
X189212Y165924D01*
X189143Y165914D01*
X189074Y165908D01*
X189004Y165906D01*
X190246Y171564D02*
X190246Y173116D01*
X190246Y171564D02*
X190244Y171506D01*
X190239Y171447D01*
X190230Y171390D01*
X190217Y171332D01*
X190200Y171276D01*
X190181Y171221D01*
X190157Y171168D01*
X190131Y171115D01*
X190101Y171065D01*
X190068Y171017D01*
X190032Y170971D01*
X189994Y170927D01*
X189952Y170885D01*
X189908Y170847D01*
X189862Y170811D01*
X189814Y170778D01*
X189764Y170748D01*
X189711Y170722D01*
X189658Y170698D01*
X189603Y170679D01*
X189547Y170662D01*
X189489Y170649D01*
X189432Y170640D01*
X189373Y170635D01*
X189315Y170633D01*
X189315Y170632D02*
X187452Y170632D01*
X187452Y170633D02*
X187394Y170635D01*
X187335Y170640D01*
X187278Y170649D01*
X187220Y170662D01*
X187164Y170679D01*
X187109Y170698D01*
X187056Y170722D01*
X187003Y170748D01*
X186953Y170778D01*
X186905Y170811D01*
X186859Y170847D01*
X186815Y170885D01*
X186773Y170927D01*
X186735Y170971D01*
X186699Y171017D01*
X186666Y171065D01*
X186636Y171115D01*
X186610Y171168D01*
X186586Y171221D01*
X186567Y171276D01*
X186550Y171332D01*
X186537Y171390D01*
X186528Y171447D01*
X186523Y171506D01*
X186521Y171564D01*
X186521Y173116D01*
X191177Y173116D01*
X191235Y173114D01*
X191294Y173109D01*
X191351Y173100D01*
X191409Y173087D01*
X191465Y173070D01*
X191520Y173051D01*
X191573Y173027D01*
X191626Y173001D01*
X191676Y172971D01*
X191724Y172938D01*
X191770Y172902D01*
X191814Y172864D01*
X191856Y172822D01*
X191894Y172778D01*
X191930Y172732D01*
X191963Y172684D01*
X191993Y172634D01*
X192019Y172581D01*
X192043Y172528D01*
X192062Y172473D01*
X192079Y172417D01*
X192092Y172359D01*
X192101Y172302D01*
X192106Y172243D01*
X192108Y172185D01*
X192109Y172185D02*
X192109Y170943D01*
X188073Y176657D02*
X188073Y178054D01*
X188072Y176657D02*
X188074Y176593D01*
X188080Y176528D01*
X188089Y176465D01*
X188102Y176402D01*
X188119Y176340D01*
X188140Y176279D01*
X188164Y176219D01*
X188192Y176161D01*
X188223Y176104D01*
X188257Y176050D01*
X188295Y175997D01*
X188336Y175947D01*
X188379Y175900D01*
X188425Y175855D01*
X188474Y175813D01*
X188525Y175774D01*
X188579Y175738D01*
X188634Y175705D01*
X188692Y175676D01*
X188750Y175650D01*
X188811Y175627D01*
X188872Y175608D01*
X188935Y175593D01*
X188999Y175582D01*
X189062Y175574D01*
X189127Y175570D01*
X189191Y175570D01*
X189256Y175574D01*
X189319Y175582D01*
X189383Y175593D01*
X189446Y175608D01*
X189507Y175627D01*
X189568Y175650D01*
X189626Y175676D01*
X189684Y175705D01*
X189739Y175738D01*
X189793Y175774D01*
X189844Y175813D01*
X189893Y175855D01*
X189939Y175900D01*
X189982Y175947D01*
X190023Y175997D01*
X190061Y176050D01*
X190095Y176104D01*
X190126Y176161D01*
X190154Y176219D01*
X190178Y176279D01*
X190199Y176340D01*
X190216Y176402D01*
X190229Y176465D01*
X190238Y176528D01*
X190244Y176593D01*
X190246Y176657D01*
X190246Y178054D01*
X187452Y178054D01*
X187452Y178053D02*
X187394Y178051D01*
X187335Y178046D01*
X187278Y178037D01*
X187220Y178024D01*
X187164Y178007D01*
X187109Y177988D01*
X187056Y177964D01*
X187003Y177938D01*
X186953Y177908D01*
X186905Y177875D01*
X186859Y177839D01*
X186815Y177801D01*
X186773Y177759D01*
X186735Y177715D01*
X186699Y177669D01*
X186666Y177621D01*
X186636Y177571D01*
X186610Y177518D01*
X186586Y177465D01*
X186567Y177410D01*
X186550Y177354D01*
X186537Y177296D01*
X186528Y177239D01*
X186523Y177180D01*
X186521Y177122D01*
X186521Y175881D01*
X186521Y180720D02*
X190246Y180720D01*
X186521Y180720D02*
X186521Y182272D01*
X186523Y182330D01*
X186528Y182389D01*
X186537Y182446D01*
X186550Y182504D01*
X186567Y182560D01*
X186586Y182615D01*
X186610Y182668D01*
X186636Y182721D01*
X186666Y182771D01*
X186699Y182819D01*
X186735Y182865D01*
X186773Y182909D01*
X186815Y182951D01*
X186859Y182989D01*
X186905Y183025D01*
X186953Y183058D01*
X187003Y183088D01*
X187056Y183114D01*
X187109Y183138D01*
X187164Y183157D01*
X187220Y183174D01*
X187278Y183187D01*
X187335Y183196D01*
X187394Y183201D01*
X187452Y183203D01*
X190246Y183203D01*
X190246Y185951D02*
X184658Y185951D01*
X187762Y187814D01*
X184658Y189676D01*
X190246Y189676D01*
X187762Y193538D02*
X187762Y195401D01*
X187763Y193538D02*
X187761Y193468D01*
X187755Y193399D01*
X187745Y193330D01*
X187732Y193262D01*
X187714Y193194D01*
X187693Y193128D01*
X187668Y193063D01*
X187640Y192999D01*
X187608Y192937D01*
X187573Y192877D01*
X187534Y192819D01*
X187492Y192764D01*
X187447Y192710D01*
X187399Y192660D01*
X187349Y192612D01*
X187295Y192567D01*
X187240Y192525D01*
X187182Y192486D01*
X187122Y192451D01*
X187060Y192419D01*
X186996Y192391D01*
X186931Y192366D01*
X186865Y192345D01*
X186797Y192327D01*
X186729Y192314D01*
X186660Y192304D01*
X186591Y192298D01*
X186521Y192296D01*
X186210Y192296D01*
X186210Y192297D02*
X186133Y192299D01*
X186055Y192305D01*
X185979Y192314D01*
X185902Y192328D01*
X185827Y192345D01*
X185753Y192366D01*
X185679Y192391D01*
X185607Y192419D01*
X185537Y192451D01*
X185468Y192486D01*
X185401Y192525D01*
X185336Y192567D01*
X185273Y192612D01*
X185212Y192660D01*
X185154Y192711D01*
X185099Y192765D01*
X185046Y192822D01*
X184997Y192881D01*
X184950Y192943D01*
X184906Y193007D01*
X184866Y193073D01*
X184829Y193141D01*
X184795Y193211D01*
X184765Y193282D01*
X184739Y193355D01*
X184716Y193429D01*
X184697Y193504D01*
X184682Y193579D01*
X184670Y193656D01*
X184662Y193733D01*
X184658Y193810D01*
X184658Y193888D01*
X184662Y193965D01*
X184670Y194042D01*
X184682Y194119D01*
X184697Y194194D01*
X184716Y194269D01*
X184739Y194343D01*
X184765Y194416D01*
X184795Y194487D01*
X184829Y194557D01*
X184866Y194625D01*
X184906Y194691D01*
X184950Y194755D01*
X184997Y194817D01*
X185046Y194876D01*
X185099Y194933D01*
X185154Y194987D01*
X185212Y195038D01*
X185273Y195086D01*
X185336Y195131D01*
X185401Y195173D01*
X185468Y195212D01*
X185537Y195247D01*
X185607Y195279D01*
X185679Y195307D01*
X185753Y195332D01*
X185827Y195353D01*
X185902Y195370D01*
X185979Y195384D01*
X186055Y195393D01*
X186133Y195399D01*
X186210Y195401D01*
X187762Y195401D01*
X187860Y195399D01*
X187957Y195393D01*
X188054Y195384D01*
X188151Y195370D01*
X188247Y195353D01*
X188342Y195332D01*
X188436Y195308D01*
X188530Y195279D01*
X188622Y195247D01*
X188713Y195212D01*
X188802Y195173D01*
X188890Y195130D01*
X188976Y195084D01*
X189060Y195035D01*
X189142Y194982D01*
X189222Y194927D01*
X189300Y194868D01*
X189375Y194806D01*
X189448Y194741D01*
X189518Y194673D01*
X189586Y194603D01*
X189651Y194530D01*
X189713Y194455D01*
X189772Y194377D01*
X189827Y194297D01*
X189880Y194215D01*
X189929Y194131D01*
X189975Y194045D01*
X190018Y193957D01*
X190057Y193868D01*
X190092Y193777D01*
X190124Y193685D01*
X190153Y193591D01*
X190177Y193497D01*
X190198Y193402D01*
X190215Y193306D01*
X190229Y193209D01*
X190238Y193112D01*
X190244Y193014D01*
X190246Y192917D01*
X190246Y197783D02*
X190246Y199645D01*
X190244Y199715D01*
X190238Y199784D01*
X190228Y199853D01*
X190215Y199921D01*
X190197Y199989D01*
X190176Y200055D01*
X190151Y200120D01*
X190123Y200184D01*
X190091Y200246D01*
X190056Y200306D01*
X190017Y200364D01*
X189975Y200419D01*
X189930Y200473D01*
X189882Y200523D01*
X189832Y200571D01*
X189778Y200616D01*
X189723Y200658D01*
X189665Y200697D01*
X189605Y200732D01*
X189543Y200764D01*
X189479Y200792D01*
X189414Y200817D01*
X189348Y200838D01*
X189280Y200856D01*
X189212Y200869D01*
X189143Y200879D01*
X189074Y200885D01*
X189004Y200887D01*
X188383Y200887D01*
X188313Y200885D01*
X188244Y200879D01*
X188175Y200869D01*
X188107Y200856D01*
X188039Y200838D01*
X187973Y200817D01*
X187908Y200792D01*
X187844Y200764D01*
X187782Y200732D01*
X187722Y200697D01*
X187664Y200658D01*
X187609Y200616D01*
X187555Y200571D01*
X187505Y200523D01*
X187457Y200473D01*
X187412Y200419D01*
X187370Y200364D01*
X187331Y200306D01*
X187296Y200246D01*
X187264Y200184D01*
X187236Y200120D01*
X187211Y200055D01*
X187190Y199989D01*
X187172Y199921D01*
X187159Y199853D01*
X187149Y199784D01*
X187143Y199715D01*
X187141Y199645D01*
X187142Y199645D02*
X187142Y197783D01*
X184658Y197783D01*
X184658Y200887D01*
X134874Y146473D02*
X136116Y142748D01*
X137358Y146473D01*
X139501Y147094D02*
X141054Y148336D01*
X141054Y142748D01*
X142606Y142748D02*
X139501Y142748D01*
X144739Y142748D02*
X144739Y143058D01*
X145049Y143058D01*
X145049Y142748D01*
X144739Y142748D01*
X147182Y147094D02*
X148734Y148336D01*
X148734Y142748D01*
X147182Y142748D02*
X150287Y142748D01*
X134874Y139192D02*
X134874Y133604D01*
X134874Y139192D02*
X136426Y139192D01*
X136503Y139190D01*
X136581Y139184D01*
X136657Y139175D01*
X136734Y139161D01*
X136809Y139144D01*
X136883Y139123D01*
X136957Y139098D01*
X137029Y139070D01*
X137099Y139038D01*
X137168Y139003D01*
X137235Y138964D01*
X137300Y138922D01*
X137363Y138877D01*
X137424Y138829D01*
X137482Y138778D01*
X137537Y138724D01*
X137590Y138667D01*
X137639Y138608D01*
X137686Y138546D01*
X137730Y138482D01*
X137770Y138416D01*
X137807Y138348D01*
X137841Y138278D01*
X137871Y138207D01*
X137897Y138134D01*
X137920Y138060D01*
X137939Y137985D01*
X137954Y137910D01*
X137966Y137833D01*
X137974Y137756D01*
X137978Y137679D01*
X137978Y137601D01*
X137974Y137524D01*
X137966Y137447D01*
X137954Y137370D01*
X137939Y137295D01*
X137920Y137220D01*
X137897Y137146D01*
X137871Y137073D01*
X137841Y137002D01*
X137807Y136932D01*
X137770Y136864D01*
X137730Y136798D01*
X137686Y136734D01*
X137639Y136672D01*
X137590Y136613D01*
X137537Y136556D01*
X137482Y136502D01*
X137424Y136451D01*
X137363Y136403D01*
X137300Y136358D01*
X137235Y136316D01*
X137168Y136277D01*
X137099Y136242D01*
X137029Y136210D01*
X136957Y136182D01*
X136883Y136157D01*
X136809Y136136D01*
X136734Y136119D01*
X136657Y136105D01*
X136581Y136096D01*
X136503Y136090D01*
X136426Y136088D01*
X134874Y136088D01*
X140277Y133604D02*
X140277Y139192D01*
X141830Y139192D01*
X141906Y139190D01*
X141982Y139185D01*
X142058Y139175D01*
X142133Y139162D01*
X142207Y139145D01*
X142281Y139125D01*
X142353Y139101D01*
X142424Y139074D01*
X142494Y139043D01*
X142562Y139009D01*
X142628Y138971D01*
X142692Y138930D01*
X142755Y138887D01*
X142815Y138840D01*
X142872Y138790D01*
X142927Y138737D01*
X142980Y138682D01*
X143030Y138625D01*
X143077Y138565D01*
X143120Y138502D01*
X143161Y138438D01*
X143199Y138372D01*
X143233Y138304D01*
X143264Y138234D01*
X143291Y138163D01*
X143315Y138090D01*
X143335Y138017D01*
X143352Y137943D01*
X143365Y137868D01*
X143375Y137792D01*
X143380Y137716D01*
X143382Y137640D01*
X143382Y135156D01*
X143380Y135077D01*
X143374Y134999D01*
X143364Y134921D01*
X143350Y134844D01*
X143332Y134767D01*
X143311Y134691D01*
X143285Y134617D01*
X143256Y134544D01*
X143223Y134473D01*
X143187Y134403D01*
X143147Y134335D01*
X143104Y134269D01*
X143057Y134206D01*
X143008Y134145D01*
X142955Y134087D01*
X142899Y134031D01*
X142841Y133978D01*
X142780Y133929D01*
X142717Y133882D01*
X142651Y133839D01*
X142583Y133799D01*
X142514Y133763D01*
X142442Y133730D01*
X142369Y133701D01*
X142295Y133675D01*
X142219Y133654D01*
X142142Y133636D01*
X142065Y133622D01*
X141987Y133612D01*
X141909Y133606D01*
X141830Y133604D01*
X140277Y133604D01*
X150098Y133604D02*
X151340Y133604D01*
X150098Y133604D02*
X150028Y133606D01*
X149959Y133612D01*
X149890Y133622D01*
X149822Y133635D01*
X149754Y133653D01*
X149688Y133674D01*
X149623Y133699D01*
X149559Y133727D01*
X149497Y133759D01*
X149437Y133794D01*
X149379Y133833D01*
X149324Y133875D01*
X149270Y133920D01*
X149220Y133968D01*
X149172Y134018D01*
X149127Y134072D01*
X149085Y134127D01*
X149046Y134185D01*
X149011Y134245D01*
X148979Y134307D01*
X148951Y134371D01*
X148926Y134436D01*
X148905Y134502D01*
X148887Y134570D01*
X148874Y134638D01*
X148864Y134707D01*
X148858Y134776D01*
X148856Y134846D01*
X148856Y137950D01*
X148858Y138020D01*
X148864Y138089D01*
X148874Y138158D01*
X148887Y138226D01*
X148905Y138294D01*
X148926Y138360D01*
X148951Y138425D01*
X148979Y138489D01*
X149011Y138551D01*
X149046Y138611D01*
X149085Y138669D01*
X149127Y138724D01*
X149172Y138778D01*
X149220Y138828D01*
X149270Y138876D01*
X149324Y138921D01*
X149379Y138963D01*
X149437Y139002D01*
X149497Y139037D01*
X149559Y139069D01*
X149623Y139097D01*
X149688Y139122D01*
X149754Y139143D01*
X149822Y139161D01*
X149890Y139174D01*
X149959Y139184D01*
X150028Y139190D01*
X150098Y139192D01*
X151340Y139192D01*
X153389Y136088D02*
X153389Y134846D01*
X153389Y136088D02*
X153391Y136158D01*
X153397Y136227D01*
X153407Y136296D01*
X153420Y136364D01*
X153438Y136432D01*
X153459Y136498D01*
X153484Y136563D01*
X153512Y136627D01*
X153544Y136689D01*
X153579Y136749D01*
X153618Y136807D01*
X153660Y136862D01*
X153705Y136916D01*
X153753Y136966D01*
X153803Y137014D01*
X153857Y137059D01*
X153912Y137101D01*
X153970Y137140D01*
X154030Y137175D01*
X154092Y137207D01*
X154156Y137235D01*
X154221Y137260D01*
X154287Y137281D01*
X154355Y137299D01*
X154423Y137312D01*
X154492Y137322D01*
X154561Y137328D01*
X154631Y137330D01*
X154701Y137328D01*
X154770Y137322D01*
X154839Y137312D01*
X154907Y137299D01*
X154975Y137281D01*
X155041Y137260D01*
X155106Y137235D01*
X155170Y137207D01*
X155232Y137175D01*
X155292Y137140D01*
X155350Y137101D01*
X155405Y137059D01*
X155459Y137014D01*
X155509Y136966D01*
X155557Y136916D01*
X155602Y136862D01*
X155644Y136807D01*
X155683Y136749D01*
X155718Y136689D01*
X155750Y136627D01*
X155778Y136563D01*
X155803Y136498D01*
X155824Y136432D01*
X155842Y136364D01*
X155855Y136296D01*
X155865Y136227D01*
X155871Y136158D01*
X155873Y136088D01*
X155873Y134846D01*
X155871Y134776D01*
X155865Y134707D01*
X155855Y134638D01*
X155842Y134570D01*
X155824Y134502D01*
X155803Y134436D01*
X155778Y134371D01*
X155750Y134307D01*
X155718Y134245D01*
X155683Y134185D01*
X155644Y134127D01*
X155602Y134072D01*
X155557Y134018D01*
X155509Y133968D01*
X155459Y133920D01*
X155405Y133875D01*
X155350Y133833D01*
X155292Y133794D01*
X155232Y133759D01*
X155170Y133727D01*
X155106Y133699D01*
X155041Y133674D01*
X154975Y133653D01*
X154907Y133635D01*
X154839Y133622D01*
X154770Y133612D01*
X154701Y133606D01*
X154631Y133604D01*
X154561Y133606D01*
X154492Y133612D01*
X154423Y133622D01*
X154355Y133635D01*
X154287Y133653D01*
X154221Y133674D01*
X154156Y133699D01*
X154092Y133727D01*
X154030Y133759D01*
X153970Y133794D01*
X153912Y133833D01*
X153857Y133875D01*
X153803Y133920D01*
X153753Y133968D01*
X153705Y134018D01*
X153660Y134072D01*
X153618Y134127D01*
X153579Y134185D01*
X153544Y134245D01*
X153512Y134307D01*
X153484Y134371D01*
X153459Y134436D01*
X153438Y134502D01*
X153420Y134570D01*
X153407Y134638D01*
X153397Y134707D01*
X153391Y134776D01*
X153389Y134846D01*
X158438Y133604D02*
X158438Y137329D01*
X161232Y137329D01*
X161290Y137327D01*
X161349Y137322D01*
X161406Y137313D01*
X161464Y137300D01*
X161520Y137283D01*
X161575Y137264D01*
X161628Y137240D01*
X161681Y137214D01*
X161731Y137184D01*
X161779Y137151D01*
X161825Y137115D01*
X161869Y137077D01*
X161911Y137035D01*
X161949Y136991D01*
X161985Y136945D01*
X162018Y136897D01*
X162048Y136847D01*
X162074Y136794D01*
X162098Y136741D01*
X162117Y136686D01*
X162134Y136630D01*
X162147Y136572D01*
X162156Y136515D01*
X162161Y136456D01*
X162163Y136398D01*
X162163Y133604D01*
X160300Y133604D02*
X160300Y137329D01*
X164940Y137329D02*
X164940Y131741D01*
X164940Y137329D02*
X166492Y137329D01*
X166550Y137327D01*
X166609Y137322D01*
X166666Y137313D01*
X166724Y137300D01*
X166780Y137283D01*
X166835Y137264D01*
X166888Y137240D01*
X166941Y137214D01*
X166991Y137184D01*
X167039Y137151D01*
X167085Y137115D01*
X167129Y137077D01*
X167171Y137035D01*
X167209Y136991D01*
X167245Y136945D01*
X167278Y136897D01*
X167308Y136847D01*
X167334Y136794D01*
X167358Y136741D01*
X167377Y136686D01*
X167394Y136630D01*
X167407Y136572D01*
X167416Y136515D01*
X167421Y136456D01*
X167423Y136398D01*
X167423Y134535D01*
X167421Y134477D01*
X167416Y134418D01*
X167407Y134361D01*
X167394Y134303D01*
X167377Y134247D01*
X167358Y134192D01*
X167334Y134139D01*
X167308Y134086D01*
X167278Y134036D01*
X167245Y133988D01*
X167209Y133942D01*
X167171Y133898D01*
X167129Y133856D01*
X167085Y133818D01*
X167039Y133782D01*
X166991Y133749D01*
X166941Y133719D01*
X166888Y133693D01*
X166835Y133669D01*
X166780Y133650D01*
X166724Y133633D01*
X166666Y133620D01*
X166609Y133611D01*
X166550Y133606D01*
X166492Y133604D01*
X164940Y133604D01*
X170723Y135777D02*
X172120Y135777D01*
X170723Y135778D02*
X170659Y135776D01*
X170594Y135770D01*
X170531Y135761D01*
X170468Y135748D01*
X170406Y135731D01*
X170345Y135710D01*
X170285Y135686D01*
X170227Y135658D01*
X170170Y135627D01*
X170116Y135593D01*
X170063Y135555D01*
X170013Y135514D01*
X169966Y135471D01*
X169921Y135425D01*
X169879Y135376D01*
X169840Y135325D01*
X169804Y135271D01*
X169771Y135216D01*
X169742Y135158D01*
X169716Y135100D01*
X169693Y135039D01*
X169674Y134978D01*
X169659Y134915D01*
X169648Y134851D01*
X169640Y134788D01*
X169636Y134723D01*
X169636Y134659D01*
X169640Y134594D01*
X169648Y134531D01*
X169659Y134467D01*
X169674Y134404D01*
X169693Y134343D01*
X169716Y134282D01*
X169742Y134224D01*
X169771Y134166D01*
X169804Y134111D01*
X169840Y134057D01*
X169879Y134006D01*
X169921Y133957D01*
X169966Y133911D01*
X170013Y133868D01*
X170063Y133827D01*
X170116Y133789D01*
X170170Y133755D01*
X170227Y133724D01*
X170285Y133696D01*
X170345Y133672D01*
X170406Y133651D01*
X170468Y133634D01*
X170531Y133621D01*
X170594Y133612D01*
X170659Y133606D01*
X170723Y133604D01*
X172120Y133604D01*
X172120Y136398D01*
X172118Y136456D01*
X172113Y136515D01*
X172104Y136572D01*
X172091Y136630D01*
X172074Y136686D01*
X172055Y136741D01*
X172031Y136794D01*
X172005Y136847D01*
X171975Y136897D01*
X171942Y136945D01*
X171906Y136991D01*
X171868Y137035D01*
X171826Y137077D01*
X171782Y137115D01*
X171736Y137151D01*
X171688Y137184D01*
X171638Y137214D01*
X171585Y137240D01*
X171532Y137264D01*
X171477Y137283D01*
X171421Y137300D01*
X171363Y137313D01*
X171306Y137322D01*
X171247Y137327D01*
X171189Y137329D01*
X169947Y137329D01*
X174137Y137329D02*
X176000Y137329D01*
X174758Y139192D02*
X174758Y134535D01*
X174760Y134477D01*
X174765Y134418D01*
X174774Y134361D01*
X174787Y134303D01*
X174804Y134247D01*
X174823Y134192D01*
X174847Y134139D01*
X174873Y134086D01*
X174903Y134036D01*
X174936Y133988D01*
X174972Y133942D01*
X175010Y133898D01*
X175052Y133856D01*
X175096Y133818D01*
X175142Y133782D01*
X175190Y133749D01*
X175241Y133719D01*
X175293Y133693D01*
X175346Y133669D01*
X175401Y133650D01*
X175457Y133633D01*
X175515Y133620D01*
X175572Y133611D01*
X175631Y133606D01*
X175689Y133604D01*
X176000Y133604D01*
X178040Y133604D02*
X178040Y137329D01*
X177884Y138882D02*
X177884Y139192D01*
X178195Y139192D01*
X178195Y138882D01*
X177884Y138882D01*
X180484Y139192D02*
X180484Y133604D01*
X182036Y133604D01*
X182094Y133606D01*
X182153Y133611D01*
X182210Y133620D01*
X182268Y133633D01*
X182324Y133650D01*
X182379Y133669D01*
X182432Y133693D01*
X182485Y133719D01*
X182535Y133749D01*
X182583Y133782D01*
X182629Y133818D01*
X182673Y133856D01*
X182715Y133898D01*
X182753Y133942D01*
X182789Y133988D01*
X182822Y134036D01*
X182852Y134086D01*
X182878Y134139D01*
X182902Y134192D01*
X182921Y134247D01*
X182938Y134303D01*
X182951Y134361D01*
X182960Y134418D01*
X182965Y134477D01*
X182967Y134535D01*
X182968Y134535D02*
X182968Y136398D01*
X182967Y136398D02*
X182965Y136456D01*
X182960Y136515D01*
X182951Y136572D01*
X182938Y136630D01*
X182921Y136686D01*
X182902Y136741D01*
X182878Y136794D01*
X182852Y136847D01*
X182822Y136897D01*
X182789Y136945D01*
X182753Y136991D01*
X182715Y137035D01*
X182673Y137077D01*
X182629Y137115D01*
X182583Y137151D01*
X182535Y137184D01*
X182485Y137214D01*
X182432Y137240D01*
X182379Y137264D01*
X182324Y137283D01*
X182268Y137300D01*
X182210Y137313D01*
X182153Y137322D01*
X182094Y137327D01*
X182036Y137329D01*
X180484Y137329D01*
X185280Y139192D02*
X185280Y134535D01*
X185282Y134477D01*
X185287Y134418D01*
X185296Y134361D01*
X185309Y134303D01*
X185326Y134247D01*
X185345Y134192D01*
X185369Y134139D01*
X185395Y134086D01*
X185425Y134036D01*
X185458Y133988D01*
X185494Y133942D01*
X185532Y133898D01*
X185574Y133856D01*
X185618Y133818D01*
X185664Y133782D01*
X185712Y133749D01*
X185762Y133719D01*
X185815Y133693D01*
X185868Y133669D01*
X185923Y133650D01*
X185979Y133633D01*
X186037Y133620D01*
X186094Y133611D01*
X186153Y133606D01*
X186211Y133604D01*
X189068Y133604D02*
X190620Y133604D01*
X189068Y133604D02*
X189010Y133606D01*
X188951Y133611D01*
X188894Y133620D01*
X188836Y133633D01*
X188780Y133650D01*
X188725Y133669D01*
X188672Y133693D01*
X188619Y133719D01*
X188569Y133749D01*
X188521Y133782D01*
X188475Y133818D01*
X188431Y133856D01*
X188389Y133898D01*
X188351Y133942D01*
X188315Y133988D01*
X188282Y134036D01*
X188252Y134086D01*
X188226Y134139D01*
X188202Y134192D01*
X188183Y134247D01*
X188166Y134303D01*
X188153Y134361D01*
X188144Y134418D01*
X188139Y134477D01*
X188137Y134535D01*
X188136Y134535D02*
X188136Y136088D01*
X188138Y136158D01*
X188144Y136227D01*
X188154Y136296D01*
X188167Y136364D01*
X188185Y136432D01*
X188206Y136498D01*
X188231Y136563D01*
X188259Y136627D01*
X188291Y136689D01*
X188326Y136749D01*
X188365Y136807D01*
X188407Y136862D01*
X188452Y136916D01*
X188500Y136966D01*
X188550Y137014D01*
X188604Y137059D01*
X188659Y137101D01*
X188717Y137140D01*
X188777Y137175D01*
X188839Y137207D01*
X188903Y137235D01*
X188968Y137260D01*
X189034Y137281D01*
X189102Y137299D01*
X189170Y137312D01*
X189239Y137322D01*
X189308Y137328D01*
X189378Y137330D01*
X189448Y137328D01*
X189517Y137322D01*
X189586Y137312D01*
X189654Y137299D01*
X189722Y137281D01*
X189788Y137260D01*
X189853Y137235D01*
X189917Y137207D01*
X189979Y137175D01*
X190039Y137140D01*
X190097Y137101D01*
X190152Y137059D01*
X190206Y137014D01*
X190256Y136966D01*
X190304Y136916D01*
X190349Y136862D01*
X190391Y136807D01*
X190430Y136749D01*
X190465Y136689D01*
X190497Y136627D01*
X190525Y136563D01*
X190550Y136498D01*
X190571Y136432D01*
X190589Y136364D01*
X190602Y136296D01*
X190612Y136227D01*
X190618Y136158D01*
X190620Y136088D01*
X190620Y135467D01*
X188136Y135467D01*
X78994Y38862D02*
X78994Y33274D01*
X81478Y33274D01*
X83749Y33274D02*
X86232Y33274D01*
X83749Y33274D02*
X83749Y38862D01*
X86232Y38862D01*
X85611Y36378D02*
X83749Y36378D01*
X88493Y38862D02*
X88493Y33274D01*
X88493Y38862D02*
X90045Y38862D01*
X90121Y38860D01*
X90197Y38855D01*
X90273Y38845D01*
X90348Y38832D01*
X90422Y38815D01*
X90496Y38795D01*
X90568Y38771D01*
X90639Y38744D01*
X90709Y38713D01*
X90777Y38679D01*
X90843Y38641D01*
X90907Y38600D01*
X90970Y38557D01*
X91030Y38510D01*
X91087Y38460D01*
X91142Y38407D01*
X91195Y38352D01*
X91245Y38295D01*
X91292Y38235D01*
X91335Y38172D01*
X91376Y38108D01*
X91414Y38042D01*
X91448Y37974D01*
X91479Y37904D01*
X91506Y37833D01*
X91530Y37760D01*
X91550Y37687D01*
X91567Y37613D01*
X91580Y37538D01*
X91590Y37462D01*
X91595Y37386D01*
X91597Y37310D01*
X91597Y34826D01*
X91595Y34747D01*
X91589Y34669D01*
X91579Y34591D01*
X91565Y34514D01*
X91547Y34437D01*
X91526Y34361D01*
X91500Y34287D01*
X91471Y34214D01*
X91438Y34143D01*
X91402Y34073D01*
X91362Y34005D01*
X91319Y33939D01*
X91272Y33876D01*
X91223Y33815D01*
X91170Y33757D01*
X91114Y33701D01*
X91056Y33648D01*
X90995Y33599D01*
X90932Y33552D01*
X90866Y33509D01*
X90798Y33469D01*
X90729Y33433D01*
X90657Y33400D01*
X90584Y33371D01*
X90510Y33345D01*
X90434Y33324D01*
X90357Y33306D01*
X90280Y33292D01*
X90202Y33282D01*
X90124Y33276D01*
X90045Y33274D01*
X88493Y33274D01*
X97271Y33274D02*
X97271Y38862D01*
X98823Y38862D01*
X98899Y38860D01*
X98975Y38855D01*
X99051Y38845D01*
X99126Y38832D01*
X99200Y38815D01*
X99274Y38795D01*
X99346Y38771D01*
X99417Y38744D01*
X99487Y38713D01*
X99555Y38679D01*
X99621Y38641D01*
X99685Y38600D01*
X99748Y38557D01*
X99808Y38510D01*
X99865Y38460D01*
X99920Y38407D01*
X99973Y38352D01*
X100023Y38295D01*
X100070Y38235D01*
X100113Y38172D01*
X100154Y38108D01*
X100192Y38042D01*
X100226Y37974D01*
X100257Y37904D01*
X100284Y37833D01*
X100308Y37760D01*
X100328Y37687D01*
X100345Y37613D01*
X100358Y37538D01*
X100368Y37462D01*
X100373Y37386D01*
X100375Y37310D01*
X100375Y34826D01*
X100373Y34747D01*
X100367Y34669D01*
X100357Y34591D01*
X100343Y34514D01*
X100325Y34437D01*
X100304Y34361D01*
X100278Y34287D01*
X100249Y34214D01*
X100216Y34143D01*
X100180Y34073D01*
X100140Y34005D01*
X100097Y33939D01*
X100050Y33876D01*
X100001Y33815D01*
X99948Y33757D01*
X99892Y33701D01*
X99834Y33648D01*
X99773Y33599D01*
X99710Y33552D01*
X99644Y33509D01*
X99576Y33469D01*
X99507Y33433D01*
X99435Y33400D01*
X99362Y33371D01*
X99288Y33345D01*
X99212Y33324D01*
X99135Y33306D01*
X99058Y33292D01*
X98980Y33282D01*
X98902Y33276D01*
X98823Y33274D01*
X97271Y33274D01*
X102846Y33274D02*
X102846Y36999D01*
X102691Y38552D02*
X102691Y38862D01*
X103001Y38862D01*
X103001Y38552D01*
X102691Y38552D01*
X105545Y35447D02*
X107097Y34826D01*
X105545Y35447D02*
X105494Y35469D01*
X105445Y35495D01*
X105397Y35524D01*
X105352Y35557D01*
X105309Y35593D01*
X105268Y35631D01*
X105231Y35673D01*
X105196Y35716D01*
X105164Y35762D01*
X105136Y35811D01*
X105111Y35861D01*
X105090Y35912D01*
X105072Y35965D01*
X105058Y36019D01*
X105048Y36074D01*
X105042Y36130D01*
X105039Y36185D01*
X105040Y36241D01*
X105046Y36297D01*
X105055Y36352D01*
X105067Y36406D01*
X105084Y36460D01*
X105104Y36512D01*
X105128Y36562D01*
X105155Y36611D01*
X105186Y36658D01*
X105220Y36702D01*
X105256Y36744D01*
X105296Y36784D01*
X105338Y36820D01*
X105383Y36854D01*
X105430Y36884D01*
X105478Y36911D01*
X105529Y36935D01*
X105581Y36955D01*
X105635Y36971D01*
X105689Y36984D01*
X105744Y36993D01*
X105800Y36998D01*
X105856Y36999D01*
X105855Y37000D02*
X105966Y36996D01*
X106077Y36990D01*
X106187Y36979D01*
X106297Y36965D01*
X106407Y36948D01*
X106516Y36928D01*
X106624Y36904D01*
X106731Y36876D01*
X106838Y36845D01*
X106943Y36811D01*
X107048Y36774D01*
X107151Y36733D01*
X107253Y36689D01*
X107097Y34826D02*
X107148Y34804D01*
X107197Y34778D01*
X107245Y34749D01*
X107290Y34716D01*
X107333Y34680D01*
X107374Y34642D01*
X107411Y34600D01*
X107446Y34557D01*
X107478Y34511D01*
X107506Y34462D01*
X107531Y34412D01*
X107552Y34361D01*
X107570Y34308D01*
X107584Y34254D01*
X107594Y34199D01*
X107600Y34143D01*
X107603Y34088D01*
X107602Y34032D01*
X107596Y33976D01*
X107587Y33921D01*
X107575Y33867D01*
X107558Y33813D01*
X107538Y33761D01*
X107514Y33711D01*
X107487Y33662D01*
X107456Y33615D01*
X107422Y33571D01*
X107386Y33529D01*
X107346Y33489D01*
X107304Y33453D01*
X107259Y33419D01*
X107212Y33389D01*
X107164Y33362D01*
X107113Y33338D01*
X107061Y33318D01*
X107007Y33302D01*
X106953Y33289D01*
X106898Y33280D01*
X106842Y33275D01*
X106786Y33274D01*
X106787Y33274D02*
X106653Y33277D01*
X106519Y33284D01*
X106385Y33295D01*
X106252Y33308D01*
X106119Y33326D01*
X105986Y33346D01*
X105854Y33370D01*
X105723Y33398D01*
X105592Y33428D01*
X105463Y33462D01*
X105334Y33500D01*
X105206Y33540D01*
X105079Y33584D01*
X109368Y36999D02*
X111230Y36999D01*
X109989Y38862D02*
X109989Y34205D01*
X109991Y34147D01*
X109996Y34088D01*
X110005Y34031D01*
X110018Y33973D01*
X110035Y33917D01*
X110054Y33862D01*
X110078Y33809D01*
X110104Y33756D01*
X110134Y33706D01*
X110167Y33658D01*
X110203Y33612D01*
X110241Y33568D01*
X110283Y33526D01*
X110327Y33488D01*
X110373Y33452D01*
X110421Y33419D01*
X110472Y33389D01*
X110524Y33363D01*
X110577Y33339D01*
X110632Y33320D01*
X110688Y33303D01*
X110746Y33290D01*
X110803Y33281D01*
X110862Y33276D01*
X110920Y33274D01*
X111230Y33274D01*
X114366Y35447D02*
X115763Y35447D01*
X114366Y35448D02*
X114302Y35446D01*
X114237Y35440D01*
X114174Y35431D01*
X114111Y35418D01*
X114049Y35401D01*
X113988Y35380D01*
X113928Y35356D01*
X113870Y35328D01*
X113813Y35297D01*
X113759Y35263D01*
X113706Y35225D01*
X113656Y35184D01*
X113609Y35141D01*
X113564Y35095D01*
X113522Y35046D01*
X113483Y34995D01*
X113447Y34941D01*
X113414Y34886D01*
X113385Y34828D01*
X113359Y34770D01*
X113336Y34709D01*
X113317Y34648D01*
X113302Y34585D01*
X113291Y34521D01*
X113283Y34458D01*
X113279Y34393D01*
X113279Y34329D01*
X113283Y34264D01*
X113291Y34201D01*
X113302Y34137D01*
X113317Y34074D01*
X113336Y34013D01*
X113359Y33952D01*
X113385Y33894D01*
X113414Y33836D01*
X113447Y33781D01*
X113483Y33727D01*
X113522Y33676D01*
X113564Y33627D01*
X113609Y33581D01*
X113656Y33538D01*
X113706Y33497D01*
X113759Y33459D01*
X113813Y33425D01*
X113870Y33394D01*
X113928Y33366D01*
X113988Y33342D01*
X114049Y33321D01*
X114111Y33304D01*
X114174Y33291D01*
X114237Y33282D01*
X114302Y33276D01*
X114366Y33274D01*
X115763Y33274D01*
X115763Y36068D01*
X115761Y36126D01*
X115756Y36185D01*
X115747Y36242D01*
X115734Y36300D01*
X115717Y36356D01*
X115698Y36411D01*
X115674Y36464D01*
X115648Y36517D01*
X115618Y36567D01*
X115585Y36615D01*
X115549Y36661D01*
X115511Y36705D01*
X115469Y36747D01*
X115425Y36785D01*
X115379Y36821D01*
X115331Y36854D01*
X115281Y36884D01*
X115228Y36910D01*
X115175Y36934D01*
X115120Y36953D01*
X115064Y36970D01*
X115006Y36983D01*
X114949Y36992D01*
X114890Y36997D01*
X114832Y36999D01*
X113590Y36999D01*
X118429Y36999D02*
X118429Y33274D01*
X118429Y36999D02*
X119982Y36999D01*
X120040Y36997D01*
X120099Y36992D01*
X120156Y36983D01*
X120214Y36970D01*
X120270Y36953D01*
X120325Y36934D01*
X120378Y36910D01*
X120431Y36884D01*
X120481Y36854D01*
X120529Y36821D01*
X120575Y36785D01*
X120619Y36747D01*
X120661Y36705D01*
X120699Y36661D01*
X120735Y36615D01*
X120768Y36567D01*
X120798Y36517D01*
X120824Y36464D01*
X120848Y36411D01*
X120867Y36356D01*
X120884Y36300D01*
X120897Y36242D01*
X120906Y36185D01*
X120911Y36126D01*
X120913Y36068D01*
X120913Y33274D01*
X124305Y33274D02*
X125547Y33274D01*
X124305Y33274D02*
X124247Y33276D01*
X124188Y33281D01*
X124131Y33290D01*
X124073Y33303D01*
X124017Y33320D01*
X123962Y33339D01*
X123909Y33363D01*
X123856Y33389D01*
X123806Y33419D01*
X123758Y33452D01*
X123712Y33488D01*
X123668Y33526D01*
X123626Y33568D01*
X123588Y33612D01*
X123552Y33658D01*
X123519Y33706D01*
X123489Y33756D01*
X123463Y33809D01*
X123439Y33862D01*
X123420Y33917D01*
X123403Y33973D01*
X123390Y34031D01*
X123381Y34088D01*
X123376Y34147D01*
X123374Y34205D01*
X123374Y36068D01*
X123376Y36126D01*
X123381Y36185D01*
X123390Y36242D01*
X123403Y36300D01*
X123420Y36356D01*
X123439Y36411D01*
X123463Y36464D01*
X123489Y36517D01*
X123519Y36567D01*
X123552Y36615D01*
X123588Y36661D01*
X123626Y36705D01*
X123668Y36747D01*
X123712Y36785D01*
X123758Y36821D01*
X123806Y36854D01*
X123856Y36884D01*
X123909Y36910D01*
X123962Y36934D01*
X124017Y36953D01*
X124073Y36970D01*
X124131Y36983D01*
X124188Y36992D01*
X124247Y36997D01*
X124305Y36999D01*
X125547Y36999D01*
X128505Y33274D02*
X130057Y33274D01*
X128505Y33274D02*
X128447Y33276D01*
X128388Y33281D01*
X128331Y33290D01*
X128273Y33303D01*
X128217Y33320D01*
X128162Y33339D01*
X128109Y33363D01*
X128056Y33389D01*
X128006Y33419D01*
X127958Y33452D01*
X127912Y33488D01*
X127868Y33526D01*
X127826Y33568D01*
X127788Y33612D01*
X127752Y33658D01*
X127719Y33706D01*
X127689Y33756D01*
X127663Y33809D01*
X127639Y33862D01*
X127620Y33917D01*
X127603Y33973D01*
X127590Y34031D01*
X127581Y34088D01*
X127576Y34147D01*
X127574Y34205D01*
X127573Y34205D02*
X127573Y35758D01*
X127575Y35828D01*
X127581Y35897D01*
X127591Y35966D01*
X127604Y36034D01*
X127622Y36102D01*
X127643Y36168D01*
X127668Y36233D01*
X127696Y36297D01*
X127728Y36359D01*
X127763Y36419D01*
X127802Y36477D01*
X127844Y36532D01*
X127889Y36586D01*
X127937Y36636D01*
X127987Y36684D01*
X128041Y36729D01*
X128096Y36771D01*
X128154Y36810D01*
X128214Y36845D01*
X128276Y36877D01*
X128340Y36905D01*
X128405Y36930D01*
X128471Y36951D01*
X128539Y36969D01*
X128607Y36982D01*
X128676Y36992D01*
X128745Y36998D01*
X128815Y37000D01*
X128885Y36998D01*
X128954Y36992D01*
X129023Y36982D01*
X129091Y36969D01*
X129159Y36951D01*
X129225Y36930D01*
X129290Y36905D01*
X129354Y36877D01*
X129416Y36845D01*
X129476Y36810D01*
X129534Y36771D01*
X129589Y36729D01*
X129643Y36684D01*
X129693Y36636D01*
X129741Y36586D01*
X129786Y36532D01*
X129828Y36477D01*
X129867Y36419D01*
X129902Y36359D01*
X129934Y36297D01*
X129962Y36233D01*
X129987Y36168D01*
X130008Y36102D01*
X130026Y36034D01*
X130039Y35966D01*
X130049Y35897D01*
X130055Y35828D01*
X130057Y35758D01*
X130057Y35137D01*
X127573Y35137D01*
X135503Y33274D02*
X135503Y38862D01*
X135503Y33274D02*
X137987Y33274D01*
X139971Y33274D02*
X139971Y36999D01*
X139815Y38552D02*
X139815Y38862D01*
X140126Y38862D01*
X140126Y38552D01*
X139815Y38552D01*
X142386Y36999D02*
X142386Y33274D01*
X142386Y36999D02*
X143939Y36999D01*
X143997Y36997D01*
X144056Y36992D01*
X144113Y36983D01*
X144171Y36970D01*
X144227Y36953D01*
X144282Y36934D01*
X144335Y36910D01*
X144388Y36884D01*
X144438Y36854D01*
X144486Y36821D01*
X144532Y36785D01*
X144576Y36747D01*
X144618Y36705D01*
X144656Y36661D01*
X144692Y36615D01*
X144725Y36567D01*
X144755Y36517D01*
X144781Y36464D01*
X144805Y36411D01*
X144824Y36356D01*
X144841Y36300D01*
X144854Y36242D01*
X144863Y36185D01*
X144868Y36126D01*
X144870Y36068D01*
X144870Y33274D01*
X148255Y33274D02*
X149808Y33274D01*
X148255Y33274D02*
X148197Y33276D01*
X148138Y33281D01*
X148081Y33290D01*
X148023Y33303D01*
X147967Y33320D01*
X147912Y33339D01*
X147859Y33363D01*
X147806Y33389D01*
X147756Y33419D01*
X147708Y33452D01*
X147662Y33488D01*
X147618Y33526D01*
X147576Y33568D01*
X147538Y33612D01*
X147502Y33658D01*
X147469Y33706D01*
X147439Y33756D01*
X147413Y33809D01*
X147389Y33862D01*
X147370Y33917D01*
X147353Y33973D01*
X147340Y34031D01*
X147331Y34088D01*
X147326Y34147D01*
X147324Y34205D01*
X147324Y35758D01*
X147326Y35828D01*
X147332Y35897D01*
X147342Y35966D01*
X147355Y36034D01*
X147373Y36102D01*
X147394Y36168D01*
X147419Y36233D01*
X147447Y36297D01*
X147479Y36359D01*
X147514Y36419D01*
X147553Y36477D01*
X147595Y36532D01*
X147640Y36586D01*
X147688Y36636D01*
X147738Y36684D01*
X147792Y36729D01*
X147847Y36771D01*
X147905Y36810D01*
X147965Y36845D01*
X148027Y36877D01*
X148091Y36905D01*
X148156Y36930D01*
X148222Y36951D01*
X148290Y36969D01*
X148358Y36982D01*
X148427Y36992D01*
X148496Y36998D01*
X148566Y37000D01*
X148636Y36998D01*
X148705Y36992D01*
X148774Y36982D01*
X148842Y36969D01*
X148910Y36951D01*
X148976Y36930D01*
X149041Y36905D01*
X149105Y36877D01*
X149167Y36845D01*
X149227Y36810D01*
X149285Y36771D01*
X149340Y36729D01*
X149394Y36684D01*
X149444Y36636D01*
X149492Y36586D01*
X149537Y36532D01*
X149579Y36477D01*
X149618Y36419D01*
X149653Y36359D01*
X149685Y36297D01*
X149713Y36233D01*
X149738Y36168D01*
X149759Y36102D01*
X149777Y36034D01*
X149790Y35966D01*
X149800Y35897D01*
X149806Y35828D01*
X149808Y35758D01*
X149808Y35137D01*
X147324Y35137D01*
D13*
X29060Y210520D02*
X-26940Y210520D01*
X29060Y210520D02*
X29060Y109520D01*
X-26940Y109520D01*
X-26940Y210520D01*
D12*
X35114Y201941D02*
X40702Y201941D01*
X38529Y201941D02*
X35114Y205046D01*
X37287Y203183D02*
X40702Y205046D01*
X36356Y207162D02*
X35114Y208714D01*
X40702Y208714D01*
X40702Y207162D02*
X40702Y210266D01*
D13*
X86180Y25310D02*
X86336Y25499D01*
X86496Y25685D01*
X86661Y25866D01*
X86830Y26043D01*
X87004Y26216D01*
X87181Y26385D01*
X87363Y26550D01*
X87549Y26710D01*
X87738Y26865D01*
X87932Y27016D01*
X88129Y27161D01*
X88329Y27302D01*
X88533Y27438D01*
X88740Y27569D01*
X88951Y27695D01*
X89164Y27816D01*
X89380Y27931D01*
X89599Y28041D01*
X89821Y28146D01*
X90045Y28245D01*
X90272Y28339D01*
X90500Y28427D01*
X90731Y28510D01*
X90964Y28586D01*
X91198Y28657D01*
X91435Y28723D01*
X91672Y28782D01*
X91912Y28836D01*
X92152Y28884D01*
X92394Y28925D01*
X92636Y28961D01*
X92879Y28991D01*
X93123Y29015D01*
X93368Y29033D01*
X93612Y29045D01*
X93857Y29051D01*
X94103Y29051D01*
X94348Y29045D01*
X94592Y29033D01*
X94837Y29015D01*
X95081Y28991D01*
X95324Y28961D01*
X95566Y28925D01*
X95808Y28884D01*
X96048Y28836D01*
X96288Y28782D01*
X96525Y28723D01*
X96762Y28657D01*
X96996Y28586D01*
X97229Y28510D01*
X97460Y28427D01*
X97688Y28339D01*
X97915Y28245D01*
X98139Y28146D01*
X98361Y28041D01*
X98580Y27931D01*
X98796Y27816D01*
X99009Y27695D01*
X99220Y27569D01*
X99427Y27438D01*
X99631Y27302D01*
X99831Y27161D01*
X100028Y27016D01*
X100222Y26865D01*
X100411Y26710D01*
X100597Y26550D01*
X100779Y26385D01*
X100956Y26216D01*
X101130Y26043D01*
X101299Y25866D01*
X101464Y25685D01*
X101624Y25499D01*
X101780Y25310D01*
D14*
X97480Y6010D02*
X97482Y6073D01*
X97488Y6135D01*
X97498Y6197D01*
X97511Y6259D01*
X97529Y6319D01*
X97550Y6378D01*
X97575Y6436D01*
X97604Y6492D01*
X97636Y6546D01*
X97671Y6598D01*
X97709Y6647D01*
X97751Y6695D01*
X97795Y6739D01*
X97843Y6781D01*
X97892Y6819D01*
X97944Y6854D01*
X97998Y6886D01*
X98054Y6915D01*
X98112Y6940D01*
X98171Y6961D01*
X98231Y6979D01*
X98293Y6992D01*
X98355Y7002D01*
X98417Y7008D01*
X98480Y7010D01*
X98543Y7008D01*
X98605Y7002D01*
X98667Y6992D01*
X98729Y6979D01*
X98789Y6961D01*
X98848Y6940D01*
X98906Y6915D01*
X98962Y6886D01*
X99016Y6854D01*
X99068Y6819D01*
X99117Y6781D01*
X99165Y6739D01*
X99209Y6695D01*
X99251Y6647D01*
X99289Y6598D01*
X99324Y6546D01*
X99356Y6492D01*
X99385Y6436D01*
X99410Y6378D01*
X99431Y6319D01*
X99449Y6259D01*
X99462Y6197D01*
X99472Y6135D01*
X99478Y6073D01*
X99480Y6010D01*
X99478Y5947D01*
X99472Y5885D01*
X99462Y5823D01*
X99449Y5761D01*
X99431Y5701D01*
X99410Y5642D01*
X99385Y5584D01*
X99356Y5528D01*
X99324Y5474D01*
X99289Y5422D01*
X99251Y5373D01*
X99209Y5325D01*
X99165Y5281D01*
X99117Y5239D01*
X99068Y5201D01*
X99016Y5166D01*
X98962Y5134D01*
X98906Y5105D01*
X98848Y5080D01*
X98789Y5059D01*
X98729Y5041D01*
X98667Y5028D01*
X98605Y5018D01*
X98543Y5012D01*
X98480Y5010D01*
X98417Y5012D01*
X98355Y5018D01*
X98293Y5028D01*
X98231Y5041D01*
X98171Y5059D01*
X98112Y5080D01*
X98054Y5105D01*
X97998Y5134D01*
X97944Y5166D01*
X97892Y5201D01*
X97843Y5239D01*
X97795Y5281D01*
X97751Y5325D01*
X97709Y5373D01*
X97671Y5422D01*
X97636Y5474D01*
X97604Y5528D01*
X97575Y5584D01*
X97550Y5642D01*
X97529Y5701D01*
X97511Y5761D01*
X97498Y5823D01*
X97488Y5885D01*
X97482Y5947D01*
X97480Y6010D01*
D12*
X89712Y18608D02*
X89712Y24196D01*
X91265Y24196D01*
X91341Y24194D01*
X91417Y24189D01*
X91493Y24179D01*
X91568Y24166D01*
X91642Y24149D01*
X91716Y24129D01*
X91788Y24105D01*
X91859Y24078D01*
X91929Y24047D01*
X91997Y24013D01*
X92063Y23975D01*
X92127Y23934D01*
X92190Y23891D01*
X92250Y23844D01*
X92307Y23794D01*
X92362Y23741D01*
X92415Y23686D01*
X92465Y23629D01*
X92512Y23569D01*
X92555Y23506D01*
X92596Y23442D01*
X92634Y23376D01*
X92668Y23308D01*
X92699Y23238D01*
X92726Y23167D01*
X92750Y23094D01*
X92770Y23021D01*
X92787Y22947D01*
X92800Y22872D01*
X92810Y22796D01*
X92815Y22720D01*
X92817Y22644D01*
X92817Y20160D01*
X92815Y20081D01*
X92809Y20003D01*
X92799Y19925D01*
X92785Y19848D01*
X92767Y19771D01*
X92746Y19695D01*
X92720Y19621D01*
X92691Y19548D01*
X92658Y19477D01*
X92622Y19407D01*
X92582Y19339D01*
X92539Y19273D01*
X92492Y19210D01*
X92443Y19149D01*
X92390Y19091D01*
X92334Y19035D01*
X92276Y18982D01*
X92215Y18933D01*
X92152Y18886D01*
X92086Y18843D01*
X92018Y18803D01*
X91949Y18767D01*
X91877Y18734D01*
X91804Y18705D01*
X91730Y18679D01*
X91654Y18658D01*
X91577Y18640D01*
X91500Y18626D01*
X91422Y18616D01*
X91344Y18610D01*
X91265Y18608D01*
X89712Y18608D01*
X95382Y22954D02*
X96934Y24196D01*
X96934Y18608D01*
X95382Y18608D02*
X98486Y18608D01*
D13*
X125550Y25310D02*
X125706Y25499D01*
X125866Y25685D01*
X126031Y25866D01*
X126200Y26043D01*
X126374Y26216D01*
X126551Y26385D01*
X126733Y26550D01*
X126919Y26710D01*
X127108Y26865D01*
X127302Y27016D01*
X127499Y27161D01*
X127699Y27302D01*
X127903Y27438D01*
X128110Y27569D01*
X128321Y27695D01*
X128534Y27816D01*
X128750Y27931D01*
X128969Y28041D01*
X129191Y28146D01*
X129415Y28245D01*
X129642Y28339D01*
X129870Y28427D01*
X130101Y28510D01*
X130334Y28586D01*
X130568Y28657D01*
X130805Y28723D01*
X131042Y28782D01*
X131282Y28836D01*
X131522Y28884D01*
X131764Y28925D01*
X132006Y28961D01*
X132249Y28991D01*
X132493Y29015D01*
X132738Y29033D01*
X132982Y29045D01*
X133227Y29051D01*
X133473Y29051D01*
X133718Y29045D01*
X133962Y29033D01*
X134207Y29015D01*
X134451Y28991D01*
X134694Y28961D01*
X134936Y28925D01*
X135178Y28884D01*
X135418Y28836D01*
X135658Y28782D01*
X135895Y28723D01*
X136132Y28657D01*
X136366Y28586D01*
X136599Y28510D01*
X136830Y28427D01*
X137058Y28339D01*
X137285Y28245D01*
X137509Y28146D01*
X137731Y28041D01*
X137950Y27931D01*
X138166Y27816D01*
X138379Y27695D01*
X138590Y27569D01*
X138797Y27438D01*
X139001Y27302D01*
X139201Y27161D01*
X139398Y27016D01*
X139592Y26865D01*
X139781Y26710D01*
X139967Y26550D01*
X140149Y26385D01*
X140326Y26216D01*
X140500Y26043D01*
X140669Y25866D01*
X140834Y25685D01*
X140994Y25499D01*
X141150Y25310D01*
D14*
X136850Y6010D02*
X136852Y6073D01*
X136858Y6135D01*
X136868Y6197D01*
X136881Y6259D01*
X136899Y6319D01*
X136920Y6378D01*
X136945Y6436D01*
X136974Y6492D01*
X137006Y6546D01*
X137041Y6598D01*
X137079Y6647D01*
X137121Y6695D01*
X137165Y6739D01*
X137213Y6781D01*
X137262Y6819D01*
X137314Y6854D01*
X137368Y6886D01*
X137424Y6915D01*
X137482Y6940D01*
X137541Y6961D01*
X137601Y6979D01*
X137663Y6992D01*
X137725Y7002D01*
X137787Y7008D01*
X137850Y7010D01*
X137913Y7008D01*
X137975Y7002D01*
X138037Y6992D01*
X138099Y6979D01*
X138159Y6961D01*
X138218Y6940D01*
X138276Y6915D01*
X138332Y6886D01*
X138386Y6854D01*
X138438Y6819D01*
X138487Y6781D01*
X138535Y6739D01*
X138579Y6695D01*
X138621Y6647D01*
X138659Y6598D01*
X138694Y6546D01*
X138726Y6492D01*
X138755Y6436D01*
X138780Y6378D01*
X138801Y6319D01*
X138819Y6259D01*
X138832Y6197D01*
X138842Y6135D01*
X138848Y6073D01*
X138850Y6010D01*
X138848Y5947D01*
X138842Y5885D01*
X138832Y5823D01*
X138819Y5761D01*
X138801Y5701D01*
X138780Y5642D01*
X138755Y5584D01*
X138726Y5528D01*
X138694Y5474D01*
X138659Y5422D01*
X138621Y5373D01*
X138579Y5325D01*
X138535Y5281D01*
X138487Y5239D01*
X138438Y5201D01*
X138386Y5166D01*
X138332Y5134D01*
X138276Y5105D01*
X138218Y5080D01*
X138159Y5059D01*
X138099Y5041D01*
X138037Y5028D01*
X137975Y5018D01*
X137913Y5012D01*
X137850Y5010D01*
X137787Y5012D01*
X137725Y5018D01*
X137663Y5028D01*
X137601Y5041D01*
X137541Y5059D01*
X137482Y5080D01*
X137424Y5105D01*
X137368Y5134D01*
X137314Y5166D01*
X137262Y5201D01*
X137213Y5239D01*
X137165Y5281D01*
X137121Y5325D01*
X137079Y5373D01*
X137041Y5422D01*
X137006Y5474D01*
X136974Y5528D01*
X136945Y5584D01*
X136920Y5642D01*
X136899Y5701D01*
X136881Y5761D01*
X136868Y5823D01*
X136858Y5885D01*
X136852Y5947D01*
X136850Y6010D01*
D12*
X129082Y18608D02*
X129082Y24196D01*
X130635Y24196D01*
X130711Y24194D01*
X130787Y24189D01*
X130863Y24179D01*
X130938Y24166D01*
X131012Y24149D01*
X131086Y24129D01*
X131158Y24105D01*
X131229Y24078D01*
X131299Y24047D01*
X131367Y24013D01*
X131433Y23975D01*
X131497Y23934D01*
X131560Y23891D01*
X131620Y23844D01*
X131677Y23794D01*
X131732Y23741D01*
X131785Y23686D01*
X131835Y23629D01*
X131882Y23569D01*
X131925Y23506D01*
X131966Y23442D01*
X132004Y23376D01*
X132038Y23308D01*
X132069Y23238D01*
X132096Y23167D01*
X132120Y23094D01*
X132140Y23021D01*
X132157Y22947D01*
X132170Y22872D01*
X132180Y22796D01*
X132185Y22720D01*
X132187Y22644D01*
X132187Y20160D01*
X132185Y20081D01*
X132179Y20003D01*
X132169Y19925D01*
X132155Y19848D01*
X132137Y19771D01*
X132116Y19695D01*
X132090Y19621D01*
X132061Y19548D01*
X132028Y19477D01*
X131992Y19407D01*
X131952Y19339D01*
X131909Y19273D01*
X131862Y19210D01*
X131813Y19149D01*
X131760Y19091D01*
X131704Y19035D01*
X131646Y18982D01*
X131585Y18933D01*
X131522Y18886D01*
X131456Y18843D01*
X131388Y18803D01*
X131319Y18767D01*
X131247Y18734D01*
X131174Y18705D01*
X131100Y18679D01*
X131024Y18658D01*
X130947Y18640D01*
X130870Y18626D01*
X130792Y18616D01*
X130714Y18610D01*
X130635Y18608D01*
X129082Y18608D01*
X136459Y24196D02*
X136532Y24194D01*
X136605Y24188D01*
X136678Y24179D01*
X136749Y24165D01*
X136821Y24148D01*
X136891Y24128D01*
X136960Y24103D01*
X137027Y24075D01*
X137093Y24044D01*
X137158Y24009D01*
X137220Y23971D01*
X137280Y23929D01*
X137338Y23885D01*
X137394Y23837D01*
X137447Y23787D01*
X137497Y23734D01*
X137545Y23678D01*
X137589Y23620D01*
X137631Y23560D01*
X137669Y23498D01*
X137704Y23433D01*
X137735Y23367D01*
X137763Y23300D01*
X137788Y23231D01*
X137808Y23161D01*
X137825Y23089D01*
X137839Y23018D01*
X137848Y22945D01*
X137854Y22872D01*
X137856Y22799D01*
X136459Y24196D02*
X136375Y24194D01*
X136292Y24188D01*
X136209Y24179D01*
X136127Y24165D01*
X136045Y24148D01*
X135964Y24126D01*
X135884Y24101D01*
X135806Y24073D01*
X135728Y24041D01*
X135653Y24005D01*
X135579Y23966D01*
X135507Y23923D01*
X135437Y23877D01*
X135370Y23828D01*
X135304Y23775D01*
X135242Y23720D01*
X135182Y23662D01*
X135124Y23601D01*
X135070Y23538D01*
X135018Y23472D01*
X134970Y23404D01*
X134925Y23333D01*
X134883Y23261D01*
X134845Y23186D01*
X134810Y23110D01*
X134779Y23033D01*
X134751Y22954D01*
X137390Y21713D02*
X137444Y21766D01*
X137495Y21823D01*
X137543Y21882D01*
X137588Y21943D01*
X137629Y22006D01*
X137668Y22072D01*
X137703Y22139D01*
X137735Y22208D01*
X137763Y22279D01*
X137787Y22350D01*
X137808Y22423D01*
X137825Y22497D01*
X137839Y22572D01*
X137848Y22647D01*
X137854Y22723D01*
X137856Y22799D01*
X137390Y21712D02*
X134752Y18608D01*
X137856Y18608D01*
M02*
