G04 EAGLE Gerber RS-274X export*
G75*
%MOMM*%
%FSLAX34Y34*%
%LPD*%
%INSoldermask Top*%
%IPPOS*%
%AMOC8*
5,1,8,0,0,1.08239X$1,22.5*%
G01*
%ADD10R,1.503200X0.503200*%
%ADD11R,2.003200X2.203200*%
%ADD12R,0.803200X0.753200*%
%ADD13R,0.803200X1.103200*%

G36*
X171675Y192536D02*
X171675Y192536D01*
X171681Y192541D01*
X171685Y192538D01*
X172810Y192880D01*
X172815Y192885D01*
X172819Y192883D01*
X173857Y193438D01*
X173860Y193444D01*
X173865Y193443D01*
X174774Y194189D01*
X174776Y194196D01*
X174781Y194196D01*
X175527Y195105D01*
X175527Y195113D01*
X175532Y195113D01*
X176087Y196151D01*
X176086Y196158D01*
X176090Y196160D01*
X176432Y197285D01*
X176429Y197292D01*
X176434Y197295D01*
X176549Y198465D01*
X176547Y198468D01*
X176549Y198470D01*
X176549Y210470D01*
X176547Y210473D01*
X176549Y210475D01*
X176434Y211645D01*
X176429Y211651D01*
X176432Y211655D01*
X176090Y212780D01*
X176085Y212785D01*
X176087Y212789D01*
X175532Y213827D01*
X175526Y213830D01*
X175527Y213835D01*
X174781Y214744D01*
X174774Y214746D01*
X174774Y214751D01*
X173865Y215497D01*
X173857Y215497D01*
X173857Y215502D01*
X172819Y216057D01*
X172812Y216056D01*
X172810Y216060D01*
X171685Y216402D01*
X171678Y216399D01*
X171675Y216404D01*
X170505Y216519D01*
X170499Y216515D01*
X170495Y216519D01*
X169325Y216404D01*
X169319Y216399D01*
X169315Y216402D01*
X168190Y216060D01*
X168185Y216055D01*
X168181Y216057D01*
X167143Y215502D01*
X167140Y215496D01*
X167135Y215497D01*
X166226Y214751D01*
X166224Y214744D01*
X166219Y214744D01*
X165473Y213835D01*
X165473Y213827D01*
X165468Y213827D01*
X164913Y212789D01*
X164914Y212782D01*
X164910Y212780D01*
X164568Y211655D01*
X164571Y211648D01*
X164566Y211645D01*
X164451Y210475D01*
X164453Y210472D01*
X164451Y210470D01*
X164451Y198470D01*
X164453Y198467D01*
X164451Y198465D01*
X164566Y197295D01*
X164571Y197289D01*
X164568Y197285D01*
X164910Y196160D01*
X164915Y196155D01*
X164913Y196151D01*
X165468Y195113D01*
X165474Y195110D01*
X165473Y195105D01*
X166219Y194196D01*
X166226Y194194D01*
X166226Y194189D01*
X167135Y193443D01*
X167143Y193443D01*
X167143Y193438D01*
X168181Y192883D01*
X168188Y192884D01*
X168190Y192880D01*
X169315Y192538D01*
X169322Y192541D01*
X169325Y192536D01*
X170495Y192421D01*
X170501Y192425D01*
X170505Y192421D01*
X171675Y192536D01*
G37*
G36*
X59275Y192536D02*
X59275Y192536D01*
X59281Y192541D01*
X59285Y192538D01*
X60410Y192880D01*
X60415Y192885D01*
X60419Y192883D01*
X61457Y193438D01*
X61460Y193444D01*
X61465Y193443D01*
X62374Y194189D01*
X62376Y194196D01*
X62381Y194196D01*
X63127Y195105D01*
X63127Y195113D01*
X63132Y195113D01*
X63687Y196151D01*
X63686Y196158D01*
X63690Y196160D01*
X64032Y197285D01*
X64029Y197292D01*
X64034Y197295D01*
X64149Y198465D01*
X64147Y198468D01*
X64149Y198470D01*
X64149Y210470D01*
X64147Y210473D01*
X64149Y210475D01*
X64034Y211645D01*
X64029Y211651D01*
X64032Y211655D01*
X63690Y212780D01*
X63685Y212785D01*
X63687Y212789D01*
X63132Y213827D01*
X63126Y213830D01*
X63127Y213835D01*
X62381Y214744D01*
X62374Y214746D01*
X62374Y214751D01*
X61465Y215497D01*
X61457Y215497D01*
X61457Y215502D01*
X60419Y216057D01*
X60412Y216056D01*
X60410Y216060D01*
X59285Y216402D01*
X59278Y216399D01*
X59275Y216404D01*
X58105Y216519D01*
X58099Y216515D01*
X58095Y216519D01*
X56925Y216404D01*
X56919Y216399D01*
X56915Y216402D01*
X55790Y216060D01*
X55785Y216055D01*
X55781Y216057D01*
X54743Y215502D01*
X54740Y215496D01*
X54735Y215497D01*
X53826Y214751D01*
X53824Y214744D01*
X53819Y214744D01*
X53073Y213835D01*
X53073Y213827D01*
X53068Y213827D01*
X52513Y212789D01*
X52514Y212782D01*
X52510Y212780D01*
X52168Y211655D01*
X52171Y211648D01*
X52166Y211645D01*
X52051Y210475D01*
X52053Y210472D01*
X52051Y210470D01*
X52051Y198470D01*
X52053Y198467D01*
X52051Y198465D01*
X52166Y197295D01*
X52171Y197289D01*
X52168Y197285D01*
X52510Y196160D01*
X52515Y196155D01*
X52513Y196151D01*
X53068Y195113D01*
X53074Y195110D01*
X53073Y195105D01*
X53819Y194196D01*
X53826Y194194D01*
X53826Y194189D01*
X54735Y193443D01*
X54743Y193443D01*
X54743Y193438D01*
X55781Y192883D01*
X55788Y192884D01*
X55790Y192880D01*
X56915Y192538D01*
X56922Y192541D01*
X56925Y192536D01*
X58095Y192421D01*
X58101Y192425D01*
X58105Y192421D01*
X59275Y192536D01*
G37*
G36*
X171675Y154536D02*
X171675Y154536D01*
X171681Y154541D01*
X171685Y154538D01*
X172810Y154880D01*
X172815Y154885D01*
X172819Y154883D01*
X173857Y155438D01*
X173860Y155444D01*
X173865Y155443D01*
X174774Y156189D01*
X174776Y156196D01*
X174781Y156196D01*
X175527Y157105D01*
X175527Y157113D01*
X175532Y157113D01*
X176087Y158151D01*
X176086Y158158D01*
X176090Y158160D01*
X176432Y159285D01*
X176429Y159292D01*
X176434Y159295D01*
X176549Y160465D01*
X176547Y160468D01*
X176549Y160470D01*
X176549Y168470D01*
X176547Y168473D01*
X176549Y168475D01*
X176434Y169645D01*
X176429Y169651D01*
X176432Y169655D01*
X176090Y170780D01*
X176085Y170785D01*
X176087Y170789D01*
X175532Y171827D01*
X175526Y171830D01*
X175527Y171835D01*
X174781Y172744D01*
X174774Y172746D01*
X174774Y172751D01*
X173865Y173497D01*
X173857Y173497D01*
X173857Y173502D01*
X172819Y174057D01*
X172812Y174056D01*
X172810Y174060D01*
X171685Y174402D01*
X171678Y174399D01*
X171675Y174404D01*
X170505Y174519D01*
X170499Y174515D01*
X170495Y174519D01*
X169325Y174404D01*
X169319Y174399D01*
X169315Y174402D01*
X168190Y174060D01*
X168185Y174055D01*
X168181Y174057D01*
X167143Y173502D01*
X167140Y173496D01*
X167135Y173497D01*
X166226Y172751D01*
X166224Y172744D01*
X166219Y172744D01*
X165473Y171835D01*
X165473Y171827D01*
X165468Y171827D01*
X164913Y170789D01*
X164914Y170786D01*
X164912Y170785D01*
X164914Y170782D01*
X164910Y170780D01*
X164568Y169655D01*
X164569Y169653D01*
X164568Y169652D01*
X164570Y169649D01*
X164571Y169648D01*
X164566Y169645D01*
X164451Y168475D01*
X164453Y168472D01*
X164451Y168470D01*
X164451Y160470D01*
X164453Y160467D01*
X164451Y160465D01*
X164566Y159295D01*
X164571Y159289D01*
X164568Y159285D01*
X164910Y158160D01*
X164915Y158155D01*
X164913Y158151D01*
X165468Y157113D01*
X165474Y157110D01*
X165473Y157105D01*
X166219Y156196D01*
X166226Y156194D01*
X166226Y156189D01*
X167135Y155443D01*
X167143Y155443D01*
X167143Y155438D01*
X168181Y154883D01*
X168188Y154884D01*
X168190Y154880D01*
X169315Y154538D01*
X169322Y154541D01*
X169325Y154536D01*
X170495Y154421D01*
X170501Y154425D01*
X170505Y154421D01*
X171675Y154536D01*
G37*
G36*
X59275Y154536D02*
X59275Y154536D01*
X59281Y154541D01*
X59285Y154538D01*
X60410Y154880D01*
X60415Y154885D01*
X60419Y154883D01*
X61457Y155438D01*
X61460Y155444D01*
X61465Y155443D01*
X62374Y156189D01*
X62376Y156196D01*
X62381Y156196D01*
X63127Y157105D01*
X63127Y157113D01*
X63132Y157113D01*
X63687Y158151D01*
X63686Y158158D01*
X63690Y158160D01*
X64032Y159285D01*
X64029Y159292D01*
X64034Y159295D01*
X64149Y160465D01*
X64147Y160468D01*
X64149Y160470D01*
X64149Y168470D01*
X64147Y168473D01*
X64149Y168475D01*
X64034Y169645D01*
X64029Y169651D01*
X64032Y169655D01*
X63690Y170780D01*
X63685Y170785D01*
X63687Y170789D01*
X63132Y171827D01*
X63126Y171830D01*
X63127Y171835D01*
X62381Y172744D01*
X62374Y172746D01*
X62374Y172751D01*
X61465Y173497D01*
X61457Y173497D01*
X61457Y173502D01*
X60419Y174057D01*
X60412Y174056D01*
X60410Y174060D01*
X59285Y174402D01*
X59278Y174399D01*
X59275Y174404D01*
X58105Y174519D01*
X58099Y174515D01*
X58095Y174519D01*
X56925Y174404D01*
X56919Y174399D01*
X56915Y174402D01*
X55790Y174060D01*
X55785Y174055D01*
X55781Y174057D01*
X54743Y173502D01*
X54740Y173496D01*
X54735Y173497D01*
X53826Y172751D01*
X53824Y172744D01*
X53819Y172744D01*
X53073Y171835D01*
X53073Y171827D01*
X53068Y171827D01*
X52513Y170789D01*
X52514Y170786D01*
X52512Y170785D01*
X52514Y170782D01*
X52510Y170780D01*
X52168Y169655D01*
X52169Y169653D01*
X52168Y169652D01*
X52170Y169649D01*
X52171Y169648D01*
X52166Y169645D01*
X52051Y168475D01*
X52053Y168472D01*
X52051Y168470D01*
X52051Y160470D01*
X52053Y160467D01*
X52051Y160465D01*
X52166Y159295D01*
X52171Y159289D01*
X52168Y159285D01*
X52510Y158160D01*
X52515Y158155D01*
X52513Y158151D01*
X53068Y157113D01*
X53074Y157110D01*
X53073Y157105D01*
X53819Y156196D01*
X53826Y156194D01*
X53826Y156189D01*
X54735Y155443D01*
X54743Y155443D01*
X54743Y155438D01*
X55781Y154883D01*
X55788Y154884D01*
X55790Y154880D01*
X56915Y154538D01*
X56922Y154541D01*
X56925Y154536D01*
X58095Y154421D01*
X58101Y154425D01*
X58105Y154421D01*
X59275Y154536D01*
G37*
D10*
X35560Y187520D03*
X35560Y182520D03*
X35560Y177520D03*
X35560Y172520D03*
X35560Y167520D03*
X35560Y162520D03*
X35560Y157520D03*
X35560Y152520D03*
X35560Y147520D03*
X35560Y142520D03*
X35560Y137520D03*
X35560Y132520D03*
D11*
X8060Y114520D03*
X8060Y205520D03*
D12*
X98480Y13260D03*
X89480Y13260D03*
D13*
X107980Y16510D03*
X79980Y16510D03*
D12*
X137850Y13260D03*
X128850Y13260D03*
D13*
X147350Y16510D03*
X119350Y16510D03*
M02*
