G04 EAGLE Gerber RS-274X export*
G75*
%MOMM*%
%FSLAX34Y34*%
%LPD*%
%INBottom Copper*%
%IPPOS*%
%AMOC8*
5,1,8,0,0,1.08239X$1,22.5*%
G01*
%ADD10C,0.130000*%
%ADD11C,0.152400*%
%ADD12R,0.600000X1.100000*%
%ADD13R,0.300000X1.100000*%
%ADD14C,1.108000*%
%ADD15C,0.377400*%
%ADD16C,0.756400*%

G36*
X146836Y170766D02*
X146836Y170766D01*
X146855Y170764D01*
X146957Y170786D01*
X147059Y170802D01*
X147076Y170812D01*
X147096Y170816D01*
X147185Y170869D01*
X147276Y170918D01*
X147290Y170932D01*
X147307Y170942D01*
X147374Y171021D01*
X147446Y171096D01*
X147454Y171114D01*
X147467Y171129D01*
X147506Y171225D01*
X147549Y171319D01*
X147551Y171339D01*
X147559Y171357D01*
X147577Y171524D01*
X147577Y211694D01*
X147574Y211714D01*
X147576Y211733D01*
X147554Y211835D01*
X147538Y211937D01*
X147528Y211954D01*
X147524Y211974D01*
X147471Y212063D01*
X147422Y212154D01*
X147408Y212168D01*
X147398Y212185D01*
X147319Y212252D01*
X147244Y212324D01*
X147226Y212332D01*
X147211Y212345D01*
X147115Y212384D01*
X147021Y212427D01*
X147001Y212429D01*
X146983Y212437D01*
X146816Y212455D01*
X113399Y212455D01*
X112125Y213729D01*
X112125Y214630D01*
X112122Y214650D01*
X112124Y214669D01*
X112102Y214771D01*
X112086Y214873D01*
X112076Y214890D01*
X112072Y214910D01*
X112019Y214999D01*
X111970Y215090D01*
X111956Y215104D01*
X111946Y215121D01*
X111867Y215188D01*
X111792Y215260D01*
X111774Y215268D01*
X111759Y215281D01*
X111663Y215320D01*
X111569Y215363D01*
X111549Y215365D01*
X111531Y215373D01*
X111364Y215391D01*
X80184Y215391D01*
X80164Y215388D01*
X80145Y215390D01*
X80043Y215368D01*
X79941Y215352D01*
X79924Y215342D01*
X79904Y215338D01*
X79815Y215285D01*
X79724Y215236D01*
X79710Y215222D01*
X79693Y215212D01*
X79626Y215133D01*
X79554Y215058D01*
X79546Y215040D01*
X79533Y215025D01*
X79494Y214929D01*
X79451Y214835D01*
X79449Y214815D01*
X79441Y214797D01*
X79423Y214630D01*
X79423Y171524D01*
X79426Y171504D01*
X79424Y171485D01*
X79446Y171383D01*
X79462Y171281D01*
X79472Y171264D01*
X79476Y171244D01*
X79529Y171155D01*
X79578Y171064D01*
X79592Y171050D01*
X79602Y171033D01*
X79681Y170966D01*
X79756Y170894D01*
X79774Y170886D01*
X79789Y170873D01*
X79885Y170834D01*
X79979Y170791D01*
X79999Y170789D01*
X80017Y170781D01*
X80184Y170763D01*
X146816Y170763D01*
X146836Y170766D01*
G37*
G36*
X171618Y193546D02*
X171618Y193546D01*
X171624Y193552D01*
X171629Y193549D01*
X172686Y193919D01*
X172690Y193926D01*
X172696Y193923D01*
X173644Y194519D01*
X173647Y194527D01*
X173652Y194526D01*
X174444Y195318D01*
X174445Y195326D01*
X174451Y195326D01*
X175047Y196274D01*
X175046Y196283D01*
X175051Y196284D01*
X175421Y197341D01*
X175420Y197345D01*
X175422Y197347D01*
X175420Y197350D01*
X175424Y197352D01*
X175549Y198465D01*
X175547Y198468D01*
X175549Y198470D01*
X175549Y210470D01*
X175547Y210473D01*
X175549Y210476D01*
X175424Y211588D01*
X175418Y211594D01*
X175421Y211599D01*
X175051Y212656D01*
X175045Y212660D01*
X175047Y212666D01*
X174451Y213614D01*
X174443Y213617D01*
X174444Y213622D01*
X173652Y214414D01*
X173644Y214415D01*
X173644Y214421D01*
X172696Y215017D01*
X172687Y215016D01*
X172686Y215021D01*
X171629Y215391D01*
X171621Y215389D01*
X171618Y215394D01*
X170506Y215519D01*
X170498Y215515D01*
X170495Y215519D01*
X169382Y215394D01*
X169376Y215388D01*
X169371Y215391D01*
X168314Y215021D01*
X168310Y215015D01*
X168304Y215017D01*
X167356Y214421D01*
X167353Y214413D01*
X167348Y214414D01*
X166556Y213622D01*
X166555Y213614D01*
X166549Y213614D01*
X165953Y212666D01*
X165954Y212657D01*
X165949Y212656D01*
X165579Y211599D01*
X165581Y211591D01*
X165576Y211588D01*
X165451Y210476D01*
X165453Y210472D01*
X165451Y210470D01*
X165451Y198470D01*
X165453Y198467D01*
X165451Y198465D01*
X165576Y197352D01*
X165582Y197346D01*
X165579Y197341D01*
X165949Y196284D01*
X165956Y196280D01*
X165953Y196274D01*
X166549Y195326D01*
X166557Y195323D01*
X166556Y195318D01*
X167348Y194526D01*
X167356Y194525D01*
X167356Y194519D01*
X168304Y193923D01*
X168313Y193924D01*
X168314Y193919D01*
X169371Y193549D01*
X169379Y193551D01*
X169382Y193546D01*
X170495Y193421D01*
X170502Y193425D01*
X170506Y193421D01*
X171618Y193546D01*
G37*
G36*
X59218Y193546D02*
X59218Y193546D01*
X59224Y193552D01*
X59229Y193549D01*
X60286Y193919D01*
X60290Y193926D01*
X60296Y193923D01*
X61244Y194519D01*
X61247Y194527D01*
X61252Y194526D01*
X62044Y195318D01*
X62045Y195326D01*
X62051Y195326D01*
X62647Y196274D01*
X62646Y196283D01*
X62651Y196284D01*
X63021Y197341D01*
X63020Y197345D01*
X63022Y197347D01*
X63020Y197350D01*
X63024Y197352D01*
X63149Y198465D01*
X63147Y198468D01*
X63149Y198470D01*
X63149Y210470D01*
X63147Y210473D01*
X63149Y210476D01*
X63024Y211588D01*
X63018Y211594D01*
X63021Y211599D01*
X62651Y212656D01*
X62645Y212660D01*
X62647Y212666D01*
X62051Y213614D01*
X62043Y213617D01*
X62044Y213622D01*
X61252Y214414D01*
X61244Y214415D01*
X61244Y214421D01*
X60296Y215017D01*
X60287Y215016D01*
X60286Y215021D01*
X59229Y215391D01*
X59221Y215389D01*
X59218Y215394D01*
X58106Y215519D01*
X58098Y215515D01*
X58095Y215519D01*
X56982Y215394D01*
X56976Y215388D01*
X56971Y215391D01*
X55914Y215021D01*
X55910Y215015D01*
X55904Y215017D01*
X54956Y214421D01*
X54953Y214413D01*
X54948Y214414D01*
X54156Y213622D01*
X54155Y213614D01*
X54149Y213614D01*
X53553Y212666D01*
X53554Y212657D01*
X53549Y212656D01*
X53179Y211599D01*
X53181Y211591D01*
X53176Y211588D01*
X53051Y210476D01*
X53053Y210472D01*
X53051Y210470D01*
X53051Y198470D01*
X53053Y198467D01*
X53051Y198465D01*
X53176Y197352D01*
X53182Y197346D01*
X53179Y197341D01*
X53549Y196284D01*
X53556Y196280D01*
X53553Y196274D01*
X54149Y195326D01*
X54157Y195323D01*
X54156Y195318D01*
X54948Y194526D01*
X54956Y194525D01*
X54956Y194519D01*
X55904Y193923D01*
X55913Y193924D01*
X55914Y193919D01*
X56971Y193549D01*
X56979Y193551D01*
X56982Y193546D01*
X58095Y193421D01*
X58102Y193425D01*
X58106Y193421D01*
X59218Y193546D01*
G37*
G36*
X59218Y155546D02*
X59218Y155546D01*
X59224Y155552D01*
X59229Y155549D01*
X60286Y155919D01*
X60290Y155926D01*
X60296Y155923D01*
X61244Y156519D01*
X61247Y156527D01*
X61252Y156526D01*
X62044Y157318D01*
X62045Y157326D01*
X62051Y157326D01*
X62647Y158274D01*
X62646Y158283D01*
X62651Y158284D01*
X63021Y159341D01*
X63020Y159345D01*
X63022Y159347D01*
X63020Y159350D01*
X63024Y159352D01*
X63149Y160465D01*
X63147Y160468D01*
X63149Y160470D01*
X63149Y168470D01*
X63147Y168473D01*
X63149Y168476D01*
X63024Y169588D01*
X63018Y169594D01*
X63021Y169599D01*
X62651Y170656D01*
X62645Y170660D01*
X62647Y170666D01*
X62051Y171614D01*
X62043Y171617D01*
X62044Y171622D01*
X61252Y172414D01*
X61244Y172415D01*
X61244Y172421D01*
X60296Y173017D01*
X60287Y173016D01*
X60286Y173021D01*
X59229Y173391D01*
X59221Y173389D01*
X59218Y173394D01*
X58106Y173519D01*
X58098Y173515D01*
X58095Y173519D01*
X56982Y173394D01*
X56976Y173388D01*
X56971Y173391D01*
X55914Y173021D01*
X55910Y173015D01*
X55904Y173017D01*
X54956Y172421D01*
X54953Y172413D01*
X54948Y172414D01*
X54156Y171622D01*
X54155Y171614D01*
X54149Y171614D01*
X53553Y170666D01*
X53554Y170657D01*
X53549Y170656D01*
X53179Y169599D01*
X53181Y169591D01*
X53176Y169588D01*
X53051Y168476D01*
X53053Y168472D01*
X53051Y168470D01*
X53051Y160470D01*
X53053Y160467D01*
X53051Y160465D01*
X53176Y159352D01*
X53182Y159346D01*
X53179Y159341D01*
X53549Y158284D01*
X53556Y158280D01*
X53553Y158274D01*
X54149Y157326D01*
X54157Y157323D01*
X54156Y157318D01*
X54948Y156526D01*
X54956Y156525D01*
X54956Y156519D01*
X55904Y155923D01*
X55913Y155924D01*
X55914Y155919D01*
X56971Y155549D01*
X56979Y155551D01*
X56982Y155546D01*
X58095Y155421D01*
X58102Y155425D01*
X58106Y155421D01*
X59218Y155546D01*
G37*
G36*
X171618Y155546D02*
X171618Y155546D01*
X171624Y155552D01*
X171629Y155549D01*
X172686Y155919D01*
X172690Y155926D01*
X172696Y155923D01*
X173644Y156519D01*
X173647Y156527D01*
X173652Y156526D01*
X174444Y157318D01*
X174445Y157326D01*
X174451Y157326D01*
X175047Y158274D01*
X175046Y158283D01*
X175051Y158284D01*
X175421Y159341D01*
X175420Y159345D01*
X175422Y159347D01*
X175420Y159350D01*
X175424Y159352D01*
X175549Y160465D01*
X175547Y160468D01*
X175549Y160470D01*
X175549Y168470D01*
X175547Y168473D01*
X175549Y168476D01*
X175424Y169588D01*
X175418Y169594D01*
X175421Y169599D01*
X175051Y170656D01*
X175045Y170660D01*
X175047Y170666D01*
X174451Y171614D01*
X174443Y171617D01*
X174444Y171622D01*
X173652Y172414D01*
X173644Y172415D01*
X173644Y172421D01*
X172696Y173017D01*
X172687Y173016D01*
X172686Y173021D01*
X171629Y173391D01*
X171621Y173389D01*
X171618Y173394D01*
X170506Y173519D01*
X170498Y173515D01*
X170495Y173519D01*
X169382Y173394D01*
X169376Y173388D01*
X169371Y173391D01*
X168314Y173021D01*
X168310Y173015D01*
X168304Y173017D01*
X167356Y172421D01*
X167353Y172413D01*
X167348Y172414D01*
X166556Y171622D01*
X166555Y171614D01*
X166549Y171614D01*
X165953Y170666D01*
X165954Y170657D01*
X165949Y170656D01*
X165579Y169599D01*
X165581Y169591D01*
X165576Y169588D01*
X165451Y168476D01*
X165453Y168472D01*
X165451Y168470D01*
X165451Y160470D01*
X165453Y160467D01*
X165451Y160465D01*
X165576Y159352D01*
X165582Y159346D01*
X165579Y159341D01*
X165949Y158284D01*
X165956Y158280D01*
X165953Y158274D01*
X166549Y157326D01*
X166557Y157323D01*
X166556Y157318D01*
X167348Y156526D01*
X167356Y156525D01*
X167356Y156519D01*
X168304Y155923D01*
X168313Y155924D01*
X168314Y155919D01*
X169371Y155549D01*
X169379Y155551D01*
X169382Y155546D01*
X170495Y155421D01*
X170502Y155425D01*
X170506Y155421D01*
X171618Y155546D01*
G37*
D10*
X114300Y224790D02*
X277310Y224790D01*
X277310Y214630D02*
X114300Y214630D01*
X257810Y213980D02*
X257810Y162630D01*
X257810Y225440D02*
X257810Y300418D01*
X254618Y250790D02*
X257810Y225440D01*
X254618Y250790D02*
X261002Y250790D01*
X257810Y225440D01*
X256510Y250790D01*
X259110Y250790D02*
X257810Y225440D01*
X255210Y250790D01*
X260410Y250790D02*
X257810Y225440D01*
X257810Y213980D02*
X254618Y188630D01*
X261002Y188630D01*
X257810Y213980D01*
X256510Y188630D01*
X259110Y188630D02*
X257810Y213980D01*
X255210Y188630D01*
X260410Y188630D02*
X257810Y213980D01*
D11*
X247691Y253110D02*
X251303Y257625D01*
X235047Y257625D01*
X235047Y253110D02*
X235047Y262141D01*
X235047Y268116D02*
X235950Y268116D01*
X235950Y269019D01*
X235047Y269019D01*
X235047Y268116D01*
X243175Y274994D02*
X243495Y274998D01*
X243814Y275009D01*
X244134Y275028D01*
X244452Y275055D01*
X244770Y275089D01*
X245087Y275131D01*
X245403Y275181D01*
X245718Y275238D01*
X246031Y275302D01*
X246343Y275374D01*
X246653Y275453D01*
X246960Y275540D01*
X247266Y275634D01*
X247569Y275735D01*
X247870Y275844D01*
X248168Y275959D01*
X248464Y276082D01*
X248756Y276212D01*
X249045Y276349D01*
X249046Y276348D02*
X249154Y276387D01*
X249261Y276430D01*
X249366Y276476D01*
X249470Y276527D01*
X249572Y276580D01*
X249672Y276637D01*
X249770Y276698D01*
X249865Y276762D01*
X249959Y276829D01*
X250050Y276900D01*
X250139Y276973D01*
X250225Y277050D01*
X250308Y277129D01*
X250389Y277211D01*
X250467Y277296D01*
X250541Y277384D01*
X250613Y277474D01*
X250681Y277566D01*
X250747Y277661D01*
X250809Y277758D01*
X250867Y277857D01*
X250923Y277959D01*
X250974Y278061D01*
X251022Y278166D01*
X251067Y278272D01*
X251108Y278380D01*
X251145Y278489D01*
X251178Y278599D01*
X251207Y278711D01*
X251233Y278823D01*
X251255Y278936D01*
X251272Y279050D01*
X251286Y279164D01*
X251296Y279279D01*
X251302Y279394D01*
X251304Y279509D01*
X251303Y279509D02*
X251301Y279624D01*
X251295Y279739D01*
X251285Y279854D01*
X251271Y279968D01*
X251254Y280082D01*
X251232Y280195D01*
X251206Y280307D01*
X251177Y280419D01*
X251144Y280529D01*
X251107Y280638D01*
X251066Y280746D01*
X251021Y280852D01*
X250973Y280957D01*
X250922Y281059D01*
X250866Y281160D01*
X250808Y281260D01*
X250746Y281357D01*
X250681Y281451D01*
X250612Y281544D01*
X250540Y281634D01*
X250466Y281722D01*
X250388Y281807D01*
X250307Y281889D01*
X250224Y281968D01*
X250138Y282045D01*
X250049Y282118D01*
X249958Y282189D01*
X249864Y282256D01*
X249769Y282320D01*
X249671Y282381D01*
X249571Y282438D01*
X249469Y282491D01*
X249365Y282542D01*
X249260Y282588D01*
X249153Y282631D01*
X249045Y282670D01*
X249045Y282669D02*
X248756Y282806D01*
X248464Y282936D01*
X248168Y283059D01*
X247870Y283174D01*
X247569Y283283D01*
X247266Y283384D01*
X246960Y283478D01*
X246653Y283565D01*
X246343Y283644D01*
X246031Y283716D01*
X245718Y283780D01*
X245403Y283837D01*
X245087Y283887D01*
X244770Y283929D01*
X244452Y283963D01*
X244134Y283990D01*
X243814Y284009D01*
X243495Y284020D01*
X243175Y284024D01*
X243175Y274994D02*
X242855Y274998D01*
X242536Y275009D01*
X242216Y275028D01*
X241898Y275055D01*
X241580Y275089D01*
X241263Y275131D01*
X240947Y275181D01*
X240632Y275238D01*
X240319Y275302D01*
X240007Y275374D01*
X239697Y275453D01*
X239390Y275540D01*
X239084Y275634D01*
X238781Y275735D01*
X238480Y275844D01*
X238182Y275959D01*
X237886Y276082D01*
X237594Y276212D01*
X237305Y276349D01*
X237305Y276348D02*
X237197Y276387D01*
X237090Y276430D01*
X236985Y276476D01*
X236881Y276527D01*
X236779Y276580D01*
X236679Y276637D01*
X236581Y276698D01*
X236486Y276762D01*
X236392Y276829D01*
X236301Y276900D01*
X236212Y276973D01*
X236126Y277050D01*
X236043Y277129D01*
X235962Y277211D01*
X235884Y277296D01*
X235810Y277384D01*
X235738Y277474D01*
X235669Y277567D01*
X235604Y277661D01*
X235542Y277758D01*
X235484Y277858D01*
X235428Y277959D01*
X235377Y278061D01*
X235329Y278166D01*
X235284Y278272D01*
X235243Y278380D01*
X235206Y278489D01*
X235173Y278599D01*
X235144Y278711D01*
X235118Y278823D01*
X235096Y278936D01*
X235079Y279050D01*
X235065Y279164D01*
X235055Y279279D01*
X235049Y279394D01*
X235047Y279509D01*
X237305Y282669D02*
X237594Y282806D01*
X237886Y282936D01*
X238182Y283059D01*
X238480Y283174D01*
X238781Y283283D01*
X239084Y283384D01*
X239390Y283478D01*
X239697Y283565D01*
X240007Y283644D01*
X240319Y283716D01*
X240632Y283780D01*
X240947Y283837D01*
X241263Y283887D01*
X241580Y283929D01*
X241898Y283963D01*
X242216Y283990D01*
X242536Y284009D01*
X242855Y284020D01*
X243175Y284024D01*
X237305Y282670D02*
X237197Y282631D01*
X237090Y282588D01*
X236985Y282542D01*
X236881Y282491D01*
X236779Y282438D01*
X236679Y282381D01*
X236581Y282320D01*
X236486Y282256D01*
X236392Y282189D01*
X236301Y282118D01*
X236212Y282045D01*
X236126Y281968D01*
X236043Y281889D01*
X235962Y281807D01*
X235884Y281722D01*
X235810Y281634D01*
X235738Y281544D01*
X235669Y281451D01*
X235604Y281357D01*
X235542Y281260D01*
X235484Y281160D01*
X235428Y281059D01*
X235377Y280956D01*
X235329Y280852D01*
X235284Y280746D01*
X235243Y280638D01*
X235206Y280529D01*
X235173Y280419D01*
X235144Y280307D01*
X235118Y280195D01*
X235096Y280082D01*
X235079Y279968D01*
X235065Y279854D01*
X235055Y279739D01*
X235049Y279624D01*
X235047Y279509D01*
X238659Y275897D02*
X247691Y283122D01*
X251303Y295592D02*
X251301Y295717D01*
X251295Y295842D01*
X251286Y295967D01*
X251272Y296091D01*
X251255Y296215D01*
X251234Y296339D01*
X251209Y296461D01*
X251180Y296583D01*
X251148Y296704D01*
X251112Y296824D01*
X251072Y296943D01*
X251029Y297060D01*
X250982Y297176D01*
X250931Y297291D01*
X250877Y297403D01*
X250819Y297515D01*
X250759Y297624D01*
X250694Y297731D01*
X250627Y297837D01*
X250556Y297940D01*
X250482Y298041D01*
X250405Y298140D01*
X250325Y298236D01*
X250242Y298330D01*
X250157Y298421D01*
X250068Y298510D01*
X249977Y298595D01*
X249883Y298678D01*
X249787Y298758D01*
X249688Y298835D01*
X249587Y298909D01*
X249484Y298980D01*
X249378Y299047D01*
X249271Y299112D01*
X249162Y299172D01*
X249050Y299230D01*
X248938Y299284D01*
X248823Y299335D01*
X248707Y299382D01*
X248590Y299425D01*
X248471Y299465D01*
X248351Y299501D01*
X248230Y299533D01*
X248108Y299562D01*
X247986Y299587D01*
X247862Y299608D01*
X247738Y299625D01*
X247614Y299639D01*
X247489Y299648D01*
X247364Y299654D01*
X247239Y299656D01*
X251303Y295592D02*
X251301Y295449D01*
X251295Y295307D01*
X251285Y295164D01*
X251272Y295022D01*
X251254Y294881D01*
X251233Y294739D01*
X251208Y294599D01*
X251179Y294459D01*
X251146Y294320D01*
X251109Y294182D01*
X251069Y294045D01*
X251025Y293910D01*
X250977Y293775D01*
X250925Y293642D01*
X250870Y293510D01*
X250811Y293380D01*
X250749Y293252D01*
X250683Y293125D01*
X250614Y293000D01*
X250542Y292877D01*
X250466Y292757D01*
X250387Y292638D01*
X250304Y292521D01*
X250219Y292407D01*
X250130Y292295D01*
X250039Y292186D01*
X249944Y292079D01*
X249847Y291974D01*
X249746Y291873D01*
X249643Y291774D01*
X249538Y291678D01*
X249429Y291585D01*
X249318Y291495D01*
X249205Y291408D01*
X249090Y291324D01*
X248972Y291244D01*
X248852Y291166D01*
X248730Y291092D01*
X248606Y291022D01*
X248480Y290954D01*
X248352Y290891D01*
X248223Y290830D01*
X248092Y290773D01*
X247960Y290720D01*
X247826Y290671D01*
X247691Y290625D01*
X244078Y298301D02*
X244170Y298395D01*
X244264Y298485D01*
X244361Y298573D01*
X244461Y298658D01*
X244563Y298740D01*
X244668Y298819D01*
X244775Y298894D01*
X244884Y298966D01*
X244995Y299035D01*
X245109Y299101D01*
X245224Y299163D01*
X245341Y299222D01*
X245460Y299277D01*
X245580Y299328D01*
X245702Y299376D01*
X245825Y299421D01*
X245949Y299461D01*
X246075Y299498D01*
X246202Y299531D01*
X246329Y299560D01*
X246458Y299586D01*
X246587Y299607D01*
X246717Y299625D01*
X246847Y299638D01*
X246977Y299648D01*
X247108Y299654D01*
X247239Y299656D01*
X244078Y298301D02*
X235047Y290625D01*
X235047Y299656D01*
D10*
X69850Y277310D02*
X69850Y210820D01*
X158750Y210820D02*
X158750Y277310D01*
X158100Y257810D02*
X70500Y257810D01*
X95850Y261002D01*
X95850Y254618D01*
X70500Y257810D01*
X95850Y259110D01*
X95850Y256510D02*
X70500Y257810D01*
X95850Y260410D01*
X95850Y255210D02*
X70500Y257810D01*
X132750Y261002D02*
X158100Y257810D01*
X132750Y261002D02*
X132750Y254618D01*
X158100Y257810D01*
X132750Y259110D01*
X132750Y256510D02*
X158100Y257810D01*
X132750Y260410D01*
X132750Y255210D02*
X158100Y257810D01*
D11*
X138352Y268833D02*
X138350Y268966D01*
X138344Y269098D01*
X138334Y269230D01*
X138321Y269362D01*
X138303Y269494D01*
X138282Y269624D01*
X138257Y269755D01*
X138228Y269884D01*
X138195Y270012D01*
X138159Y270140D01*
X138119Y270266D01*
X138075Y270391D01*
X138027Y270515D01*
X137976Y270637D01*
X137921Y270758D01*
X137863Y270877D01*
X137801Y270995D01*
X137736Y271110D01*
X137667Y271224D01*
X137596Y271335D01*
X137520Y271444D01*
X137442Y271551D01*
X137361Y271656D01*
X137276Y271758D01*
X137189Y271858D01*
X137099Y271955D01*
X137006Y272050D01*
X136910Y272141D01*
X136812Y272230D01*
X136711Y272316D01*
X136607Y272399D01*
X136501Y272479D01*
X136393Y272555D01*
X136283Y272629D01*
X136170Y272699D01*
X136056Y272766D01*
X135939Y272829D01*
X135821Y272889D01*
X135701Y272946D01*
X135579Y272999D01*
X135456Y273048D01*
X135332Y273094D01*
X135206Y273136D01*
X135079Y273174D01*
X134951Y273209D01*
X134822Y273240D01*
X134693Y273267D01*
X134562Y273290D01*
X134431Y273310D01*
X134299Y273325D01*
X134167Y273337D01*
X134035Y273345D01*
X133902Y273349D01*
X133770Y273349D01*
X133637Y273345D01*
X133505Y273337D01*
X133373Y273325D01*
X133241Y273310D01*
X133110Y273290D01*
X132979Y273267D01*
X132850Y273240D01*
X132721Y273209D01*
X132593Y273174D01*
X132466Y273136D01*
X132340Y273094D01*
X132216Y273048D01*
X132093Y272999D01*
X131971Y272946D01*
X131851Y272889D01*
X131733Y272829D01*
X131616Y272766D01*
X131502Y272699D01*
X131389Y272629D01*
X131279Y272555D01*
X131171Y272479D01*
X131065Y272399D01*
X130961Y272316D01*
X130860Y272230D01*
X130762Y272141D01*
X130666Y272050D01*
X130573Y271955D01*
X130483Y271858D01*
X130396Y271758D01*
X130311Y271656D01*
X130230Y271551D01*
X130152Y271444D01*
X130076Y271335D01*
X130005Y271224D01*
X129936Y271110D01*
X129871Y270995D01*
X129809Y270877D01*
X129751Y270758D01*
X129696Y270637D01*
X129645Y270515D01*
X129597Y270391D01*
X129553Y270266D01*
X129513Y270140D01*
X129477Y270012D01*
X129444Y269884D01*
X129415Y269755D01*
X129390Y269624D01*
X129369Y269494D01*
X129351Y269362D01*
X129338Y269230D01*
X129328Y269098D01*
X129322Y268966D01*
X129320Y268833D01*
X129322Y268700D01*
X129328Y268568D01*
X129338Y268436D01*
X129351Y268304D01*
X129369Y268172D01*
X129390Y268042D01*
X129415Y267911D01*
X129444Y267782D01*
X129477Y267654D01*
X129513Y267526D01*
X129553Y267400D01*
X129597Y267275D01*
X129645Y267151D01*
X129696Y267029D01*
X129751Y266908D01*
X129809Y266789D01*
X129871Y266671D01*
X129936Y266556D01*
X130005Y266442D01*
X130076Y266331D01*
X130152Y266222D01*
X130230Y266115D01*
X130311Y266010D01*
X130396Y265908D01*
X130483Y265808D01*
X130573Y265711D01*
X130666Y265616D01*
X130762Y265525D01*
X130860Y265436D01*
X130961Y265350D01*
X131065Y265267D01*
X131171Y265187D01*
X131279Y265111D01*
X131389Y265037D01*
X131502Y264967D01*
X131616Y264900D01*
X131733Y264837D01*
X131851Y264777D01*
X131971Y264720D01*
X132093Y264667D01*
X132216Y264618D01*
X132340Y264572D01*
X132466Y264530D01*
X132593Y264492D01*
X132721Y264457D01*
X132850Y264426D01*
X132979Y264399D01*
X133110Y264376D01*
X133241Y264356D01*
X133373Y264341D01*
X133505Y264329D01*
X133637Y264321D01*
X133770Y264317D01*
X133902Y264317D01*
X134035Y264321D01*
X134167Y264329D01*
X134299Y264341D01*
X134431Y264356D01*
X134562Y264376D01*
X134693Y264399D01*
X134822Y264426D01*
X134951Y264457D01*
X135079Y264492D01*
X135206Y264530D01*
X135332Y264572D01*
X135456Y264618D01*
X135579Y264667D01*
X135701Y264720D01*
X135821Y264777D01*
X135939Y264837D01*
X136056Y264900D01*
X136170Y264967D01*
X136283Y265037D01*
X136393Y265111D01*
X136501Y265187D01*
X136607Y265267D01*
X136711Y265350D01*
X136812Y265436D01*
X136910Y265525D01*
X137006Y265616D01*
X137099Y265711D01*
X137189Y265808D01*
X137276Y265908D01*
X137361Y266010D01*
X137442Y266115D01*
X137520Y266222D01*
X137596Y266331D01*
X137667Y266442D01*
X137736Y266556D01*
X137801Y266671D01*
X137863Y266789D01*
X137921Y266908D01*
X137976Y267029D01*
X138027Y267151D01*
X138075Y267275D01*
X138119Y267400D01*
X138159Y267526D01*
X138195Y267654D01*
X138228Y267782D01*
X138257Y267911D01*
X138282Y268042D01*
X138303Y268172D01*
X138321Y268304D01*
X138334Y268436D01*
X138344Y268568D01*
X138350Y268700D01*
X138352Y268833D01*
X137448Y276961D02*
X137446Y277080D01*
X137440Y277200D01*
X137430Y277319D01*
X137416Y277437D01*
X137399Y277556D01*
X137377Y277673D01*
X137352Y277790D01*
X137322Y277905D01*
X137289Y278020D01*
X137252Y278134D01*
X137212Y278246D01*
X137167Y278357D01*
X137119Y278466D01*
X137068Y278574D01*
X137013Y278680D01*
X136954Y278784D01*
X136892Y278886D01*
X136827Y278986D01*
X136758Y279084D01*
X136686Y279180D01*
X136611Y279273D01*
X136534Y279363D01*
X136453Y279451D01*
X136369Y279536D01*
X136282Y279618D01*
X136193Y279698D01*
X136101Y279774D01*
X136007Y279848D01*
X135910Y279918D01*
X135812Y279985D01*
X135711Y280049D01*
X135607Y280109D01*
X135502Y280166D01*
X135395Y280219D01*
X135287Y280269D01*
X135177Y280315D01*
X135065Y280357D01*
X134952Y280396D01*
X134838Y280431D01*
X134723Y280462D01*
X134606Y280490D01*
X134489Y280513D01*
X134372Y280533D01*
X134253Y280549D01*
X134134Y280561D01*
X134015Y280569D01*
X133896Y280573D01*
X133776Y280573D01*
X133657Y280569D01*
X133538Y280561D01*
X133419Y280549D01*
X133300Y280533D01*
X133183Y280513D01*
X133066Y280490D01*
X132949Y280462D01*
X132834Y280431D01*
X132720Y280396D01*
X132607Y280357D01*
X132495Y280315D01*
X132385Y280269D01*
X132277Y280219D01*
X132170Y280166D01*
X132065Y280109D01*
X131961Y280049D01*
X131860Y279985D01*
X131762Y279918D01*
X131665Y279848D01*
X131571Y279774D01*
X131479Y279698D01*
X131390Y279618D01*
X131303Y279536D01*
X131219Y279451D01*
X131138Y279363D01*
X131061Y279273D01*
X130986Y279180D01*
X130914Y279084D01*
X130845Y278986D01*
X130780Y278886D01*
X130718Y278784D01*
X130659Y278680D01*
X130604Y278574D01*
X130553Y278466D01*
X130505Y278357D01*
X130460Y278246D01*
X130420Y278134D01*
X130383Y278020D01*
X130350Y277905D01*
X130320Y277790D01*
X130295Y277673D01*
X130273Y277556D01*
X130256Y277437D01*
X130242Y277319D01*
X130232Y277200D01*
X130226Y277080D01*
X130224Y276961D01*
X130226Y276842D01*
X130232Y276722D01*
X130242Y276603D01*
X130256Y276485D01*
X130273Y276366D01*
X130295Y276249D01*
X130320Y276132D01*
X130350Y276017D01*
X130383Y275902D01*
X130420Y275788D01*
X130460Y275676D01*
X130505Y275565D01*
X130553Y275456D01*
X130604Y275348D01*
X130659Y275242D01*
X130718Y275138D01*
X130780Y275036D01*
X130845Y274936D01*
X130914Y274838D01*
X130986Y274742D01*
X131061Y274649D01*
X131138Y274559D01*
X131219Y274471D01*
X131303Y274386D01*
X131390Y274304D01*
X131479Y274224D01*
X131571Y274148D01*
X131665Y274074D01*
X131762Y274004D01*
X131860Y273937D01*
X131961Y273873D01*
X132065Y273813D01*
X132170Y273756D01*
X132277Y273703D01*
X132385Y273653D01*
X132495Y273607D01*
X132607Y273565D01*
X132720Y273526D01*
X132834Y273491D01*
X132949Y273460D01*
X133066Y273432D01*
X133183Y273409D01*
X133300Y273389D01*
X133419Y273373D01*
X133538Y273361D01*
X133657Y273353D01*
X133776Y273349D01*
X133896Y273349D01*
X134015Y273353D01*
X134134Y273361D01*
X134253Y273373D01*
X134372Y273389D01*
X134489Y273409D01*
X134606Y273432D01*
X134723Y273460D01*
X134838Y273491D01*
X134952Y273526D01*
X135065Y273565D01*
X135177Y273607D01*
X135287Y273653D01*
X135395Y273703D01*
X135502Y273756D01*
X135607Y273813D01*
X135711Y273873D01*
X135812Y273937D01*
X135910Y274004D01*
X136007Y274074D01*
X136101Y274148D01*
X136193Y274224D01*
X136282Y274304D01*
X136369Y274386D01*
X136453Y274471D01*
X136534Y274559D01*
X136611Y274649D01*
X136686Y274742D01*
X136758Y274838D01*
X136827Y274936D01*
X136892Y275036D01*
X136954Y275138D01*
X137013Y275242D01*
X137068Y275348D01*
X137119Y275456D01*
X137167Y275565D01*
X137212Y275676D01*
X137252Y275788D01*
X137289Y275902D01*
X137322Y276017D01*
X137352Y276132D01*
X137377Y276249D01*
X137399Y276366D01*
X137416Y276485D01*
X137430Y276603D01*
X137440Y276722D01*
X137446Y276842D01*
X137448Y276961D01*
X123346Y265220D02*
X123346Y264317D01*
X123346Y265220D02*
X122443Y265220D01*
X122443Y264317D01*
X123346Y264317D01*
X116469Y268833D02*
X116467Y268966D01*
X116461Y269098D01*
X116451Y269230D01*
X116438Y269362D01*
X116420Y269494D01*
X116399Y269624D01*
X116374Y269755D01*
X116345Y269884D01*
X116312Y270012D01*
X116276Y270140D01*
X116236Y270266D01*
X116192Y270391D01*
X116144Y270515D01*
X116093Y270637D01*
X116038Y270758D01*
X115980Y270877D01*
X115918Y270995D01*
X115853Y271110D01*
X115784Y271224D01*
X115713Y271335D01*
X115637Y271444D01*
X115559Y271551D01*
X115478Y271656D01*
X115393Y271758D01*
X115306Y271858D01*
X115216Y271955D01*
X115123Y272050D01*
X115027Y272141D01*
X114929Y272230D01*
X114828Y272316D01*
X114724Y272399D01*
X114618Y272479D01*
X114510Y272555D01*
X114400Y272629D01*
X114287Y272699D01*
X114173Y272766D01*
X114056Y272829D01*
X113938Y272889D01*
X113818Y272946D01*
X113696Y272999D01*
X113573Y273048D01*
X113449Y273094D01*
X113323Y273136D01*
X113196Y273174D01*
X113068Y273209D01*
X112939Y273240D01*
X112810Y273267D01*
X112679Y273290D01*
X112548Y273310D01*
X112416Y273325D01*
X112284Y273337D01*
X112152Y273345D01*
X112019Y273349D01*
X111887Y273349D01*
X111754Y273345D01*
X111622Y273337D01*
X111490Y273325D01*
X111358Y273310D01*
X111227Y273290D01*
X111096Y273267D01*
X110967Y273240D01*
X110838Y273209D01*
X110710Y273174D01*
X110583Y273136D01*
X110457Y273094D01*
X110333Y273048D01*
X110210Y272999D01*
X110088Y272946D01*
X109968Y272889D01*
X109850Y272829D01*
X109733Y272766D01*
X109619Y272699D01*
X109506Y272629D01*
X109396Y272555D01*
X109288Y272479D01*
X109182Y272399D01*
X109078Y272316D01*
X108977Y272230D01*
X108879Y272141D01*
X108783Y272050D01*
X108690Y271955D01*
X108600Y271858D01*
X108513Y271758D01*
X108428Y271656D01*
X108347Y271551D01*
X108269Y271444D01*
X108193Y271335D01*
X108122Y271224D01*
X108053Y271110D01*
X107988Y270995D01*
X107926Y270877D01*
X107868Y270758D01*
X107813Y270637D01*
X107762Y270515D01*
X107714Y270391D01*
X107670Y270266D01*
X107630Y270140D01*
X107594Y270012D01*
X107561Y269884D01*
X107532Y269755D01*
X107507Y269624D01*
X107486Y269494D01*
X107468Y269362D01*
X107455Y269230D01*
X107445Y269098D01*
X107439Y268966D01*
X107437Y268833D01*
X107439Y268700D01*
X107445Y268568D01*
X107455Y268436D01*
X107468Y268304D01*
X107486Y268172D01*
X107507Y268042D01*
X107532Y267911D01*
X107561Y267782D01*
X107594Y267654D01*
X107630Y267526D01*
X107670Y267400D01*
X107714Y267275D01*
X107762Y267151D01*
X107813Y267029D01*
X107868Y266908D01*
X107926Y266789D01*
X107988Y266671D01*
X108053Y266556D01*
X108122Y266442D01*
X108193Y266331D01*
X108269Y266222D01*
X108347Y266115D01*
X108428Y266010D01*
X108513Y265908D01*
X108600Y265808D01*
X108690Y265711D01*
X108783Y265616D01*
X108879Y265525D01*
X108977Y265436D01*
X109078Y265350D01*
X109182Y265267D01*
X109288Y265187D01*
X109396Y265111D01*
X109506Y265037D01*
X109619Y264967D01*
X109733Y264900D01*
X109850Y264837D01*
X109968Y264777D01*
X110088Y264720D01*
X110210Y264667D01*
X110333Y264618D01*
X110457Y264572D01*
X110583Y264530D01*
X110710Y264492D01*
X110838Y264457D01*
X110967Y264426D01*
X111096Y264399D01*
X111227Y264376D01*
X111358Y264356D01*
X111490Y264341D01*
X111622Y264329D01*
X111754Y264321D01*
X111887Y264317D01*
X112019Y264317D01*
X112152Y264321D01*
X112284Y264329D01*
X112416Y264341D01*
X112548Y264356D01*
X112679Y264376D01*
X112810Y264399D01*
X112939Y264426D01*
X113068Y264457D01*
X113196Y264492D01*
X113323Y264530D01*
X113449Y264572D01*
X113573Y264618D01*
X113696Y264667D01*
X113818Y264720D01*
X113938Y264777D01*
X114056Y264837D01*
X114173Y264900D01*
X114287Y264967D01*
X114400Y265037D01*
X114510Y265111D01*
X114618Y265187D01*
X114724Y265267D01*
X114828Y265350D01*
X114929Y265436D01*
X115027Y265525D01*
X115123Y265616D01*
X115216Y265711D01*
X115306Y265808D01*
X115393Y265908D01*
X115478Y266010D01*
X115559Y266115D01*
X115637Y266222D01*
X115713Y266331D01*
X115784Y266442D01*
X115853Y266556D01*
X115918Y266671D01*
X115980Y266789D01*
X116038Y266908D01*
X116093Y267029D01*
X116144Y267151D01*
X116192Y267275D01*
X116236Y267400D01*
X116276Y267526D01*
X116312Y267654D01*
X116345Y267782D01*
X116374Y267911D01*
X116399Y268042D01*
X116420Y268172D01*
X116438Y268304D01*
X116451Y268436D01*
X116461Y268568D01*
X116467Y268700D01*
X116469Y268833D01*
X115565Y276961D02*
X115563Y277080D01*
X115557Y277200D01*
X115547Y277319D01*
X115533Y277437D01*
X115516Y277556D01*
X115494Y277673D01*
X115469Y277790D01*
X115439Y277905D01*
X115406Y278020D01*
X115369Y278134D01*
X115329Y278246D01*
X115284Y278357D01*
X115236Y278466D01*
X115185Y278574D01*
X115130Y278680D01*
X115071Y278784D01*
X115009Y278886D01*
X114944Y278986D01*
X114875Y279084D01*
X114803Y279180D01*
X114728Y279273D01*
X114651Y279363D01*
X114570Y279451D01*
X114486Y279536D01*
X114399Y279618D01*
X114310Y279698D01*
X114218Y279774D01*
X114124Y279848D01*
X114027Y279918D01*
X113929Y279985D01*
X113828Y280049D01*
X113724Y280109D01*
X113619Y280166D01*
X113512Y280219D01*
X113404Y280269D01*
X113294Y280315D01*
X113182Y280357D01*
X113069Y280396D01*
X112955Y280431D01*
X112840Y280462D01*
X112723Y280490D01*
X112606Y280513D01*
X112489Y280533D01*
X112370Y280549D01*
X112251Y280561D01*
X112132Y280569D01*
X112013Y280573D01*
X111893Y280573D01*
X111774Y280569D01*
X111655Y280561D01*
X111536Y280549D01*
X111417Y280533D01*
X111300Y280513D01*
X111183Y280490D01*
X111066Y280462D01*
X110951Y280431D01*
X110837Y280396D01*
X110724Y280357D01*
X110612Y280315D01*
X110502Y280269D01*
X110394Y280219D01*
X110287Y280166D01*
X110182Y280109D01*
X110078Y280049D01*
X109977Y279985D01*
X109879Y279918D01*
X109782Y279848D01*
X109688Y279774D01*
X109596Y279698D01*
X109507Y279618D01*
X109420Y279536D01*
X109336Y279451D01*
X109255Y279363D01*
X109178Y279273D01*
X109103Y279180D01*
X109031Y279084D01*
X108962Y278986D01*
X108897Y278886D01*
X108835Y278784D01*
X108776Y278680D01*
X108721Y278574D01*
X108670Y278466D01*
X108622Y278357D01*
X108577Y278246D01*
X108537Y278134D01*
X108500Y278020D01*
X108467Y277905D01*
X108437Y277790D01*
X108412Y277673D01*
X108390Y277556D01*
X108373Y277437D01*
X108359Y277319D01*
X108349Y277200D01*
X108343Y277080D01*
X108341Y276961D01*
X108343Y276842D01*
X108349Y276722D01*
X108359Y276603D01*
X108373Y276485D01*
X108390Y276366D01*
X108412Y276249D01*
X108437Y276132D01*
X108467Y276017D01*
X108500Y275902D01*
X108537Y275788D01*
X108577Y275676D01*
X108622Y275565D01*
X108670Y275456D01*
X108721Y275348D01*
X108776Y275242D01*
X108835Y275138D01*
X108897Y275036D01*
X108962Y274936D01*
X109031Y274838D01*
X109103Y274742D01*
X109178Y274649D01*
X109255Y274559D01*
X109336Y274471D01*
X109420Y274386D01*
X109507Y274304D01*
X109596Y274224D01*
X109688Y274148D01*
X109782Y274074D01*
X109879Y274004D01*
X109977Y273937D01*
X110078Y273873D01*
X110182Y273813D01*
X110287Y273756D01*
X110394Y273703D01*
X110502Y273653D01*
X110612Y273607D01*
X110724Y273565D01*
X110837Y273526D01*
X110951Y273491D01*
X111066Y273460D01*
X111183Y273432D01*
X111300Y273409D01*
X111417Y273389D01*
X111536Y273373D01*
X111655Y273361D01*
X111774Y273353D01*
X111893Y273349D01*
X112013Y273349D01*
X112132Y273353D01*
X112251Y273361D01*
X112370Y273373D01*
X112489Y273389D01*
X112606Y273409D01*
X112723Y273432D01*
X112840Y273460D01*
X112955Y273491D01*
X113069Y273526D01*
X113182Y273565D01*
X113294Y273607D01*
X113404Y273653D01*
X113512Y273703D01*
X113619Y273756D01*
X113724Y273813D01*
X113828Y273873D01*
X113929Y273937D01*
X114027Y274004D01*
X114124Y274074D01*
X114218Y274148D01*
X114310Y274224D01*
X114399Y274304D01*
X114486Y274386D01*
X114570Y274471D01*
X114651Y274559D01*
X114728Y274649D01*
X114803Y274742D01*
X114875Y274838D01*
X114944Y274936D01*
X115009Y275036D01*
X115071Y275138D01*
X115130Y275242D01*
X115185Y275348D01*
X115236Y275456D01*
X115284Y275565D01*
X115329Y275676D01*
X115369Y275788D01*
X115406Y275902D01*
X115439Y276017D01*
X115469Y276132D01*
X115494Y276249D01*
X115516Y276366D01*
X115533Y276485D01*
X115547Y276603D01*
X115557Y276722D01*
X115563Y276842D01*
X115565Y276961D01*
X97225Y271542D02*
X91806Y271542D01*
X97225Y271542D02*
X97343Y271544D01*
X97461Y271550D01*
X97579Y271559D01*
X97696Y271573D01*
X97813Y271590D01*
X97930Y271611D01*
X98045Y271636D01*
X98160Y271665D01*
X98274Y271698D01*
X98386Y271734D01*
X98497Y271774D01*
X98607Y271817D01*
X98716Y271864D01*
X98823Y271914D01*
X98928Y271969D01*
X99031Y272026D01*
X99132Y272087D01*
X99232Y272151D01*
X99329Y272218D01*
X99424Y272288D01*
X99516Y272362D01*
X99607Y272438D01*
X99694Y272518D01*
X99779Y272600D01*
X99861Y272685D01*
X99941Y272772D01*
X100017Y272863D01*
X100091Y272955D01*
X100161Y273050D01*
X100228Y273147D01*
X100292Y273247D01*
X100353Y273348D01*
X100410Y273451D01*
X100465Y273556D01*
X100515Y273663D01*
X100562Y273772D01*
X100605Y273882D01*
X100645Y273993D01*
X100681Y274105D01*
X100714Y274219D01*
X100743Y274334D01*
X100768Y274449D01*
X100789Y274566D01*
X100806Y274683D01*
X100820Y274800D01*
X100829Y274918D01*
X100835Y275036D01*
X100837Y275154D01*
X100837Y276057D01*
X100835Y276190D01*
X100829Y276322D01*
X100819Y276454D01*
X100806Y276586D01*
X100788Y276718D01*
X100767Y276848D01*
X100742Y276979D01*
X100713Y277108D01*
X100680Y277236D01*
X100644Y277364D01*
X100604Y277490D01*
X100560Y277615D01*
X100512Y277739D01*
X100461Y277861D01*
X100406Y277982D01*
X100348Y278101D01*
X100286Y278219D01*
X100221Y278334D01*
X100152Y278448D01*
X100081Y278559D01*
X100005Y278668D01*
X99927Y278775D01*
X99846Y278880D01*
X99761Y278982D01*
X99674Y279082D01*
X99584Y279179D01*
X99491Y279274D01*
X99395Y279365D01*
X99297Y279454D01*
X99196Y279540D01*
X99092Y279623D01*
X98986Y279703D01*
X98878Y279779D01*
X98768Y279853D01*
X98655Y279923D01*
X98541Y279990D01*
X98424Y280053D01*
X98306Y280113D01*
X98186Y280170D01*
X98064Y280223D01*
X97941Y280272D01*
X97817Y280318D01*
X97691Y280360D01*
X97564Y280398D01*
X97436Y280433D01*
X97307Y280464D01*
X97178Y280491D01*
X97047Y280514D01*
X96916Y280534D01*
X96784Y280549D01*
X96652Y280561D01*
X96520Y280569D01*
X96387Y280573D01*
X96255Y280573D01*
X96122Y280569D01*
X95990Y280561D01*
X95858Y280549D01*
X95726Y280534D01*
X95595Y280514D01*
X95464Y280491D01*
X95335Y280464D01*
X95206Y280433D01*
X95078Y280398D01*
X94951Y280360D01*
X94825Y280318D01*
X94701Y280272D01*
X94578Y280223D01*
X94456Y280170D01*
X94336Y280113D01*
X94218Y280053D01*
X94101Y279990D01*
X93987Y279923D01*
X93874Y279853D01*
X93764Y279779D01*
X93656Y279703D01*
X93550Y279623D01*
X93446Y279540D01*
X93345Y279454D01*
X93247Y279365D01*
X93151Y279274D01*
X93058Y279179D01*
X92968Y279082D01*
X92881Y278982D01*
X92796Y278880D01*
X92715Y278775D01*
X92637Y278668D01*
X92561Y278559D01*
X92490Y278448D01*
X92421Y278334D01*
X92356Y278219D01*
X92294Y278101D01*
X92236Y277982D01*
X92181Y277861D01*
X92130Y277739D01*
X92082Y277615D01*
X92038Y277490D01*
X91998Y277364D01*
X91962Y277236D01*
X91929Y277108D01*
X91900Y276979D01*
X91875Y276848D01*
X91854Y276718D01*
X91836Y276586D01*
X91823Y276454D01*
X91813Y276322D01*
X91807Y276190D01*
X91805Y276057D01*
X91806Y276057D02*
X91806Y271542D01*
X91808Y271367D01*
X91814Y271193D01*
X91825Y271019D01*
X91840Y270845D01*
X91859Y270671D01*
X91882Y270498D01*
X91909Y270326D01*
X91941Y270154D01*
X91976Y269983D01*
X92016Y269813D01*
X92060Y269644D01*
X92108Y269476D01*
X92160Y269309D01*
X92216Y269144D01*
X92276Y268980D01*
X92339Y268817D01*
X92407Y268657D01*
X92479Y268497D01*
X92554Y268340D01*
X92634Y268184D01*
X92717Y268031D01*
X92803Y267879D01*
X92894Y267730D01*
X92988Y267583D01*
X93085Y267438D01*
X93186Y267295D01*
X93290Y267155D01*
X93398Y267018D01*
X93509Y266883D01*
X93623Y266751D01*
X93740Y266622D01*
X93861Y266495D01*
X93984Y266372D01*
X94111Y266251D01*
X94240Y266134D01*
X94372Y266020D01*
X94507Y265909D01*
X94644Y265801D01*
X94784Y265697D01*
X94927Y265596D01*
X95072Y265499D01*
X95219Y265405D01*
X95368Y265314D01*
X95520Y265228D01*
X95673Y265145D01*
X95829Y265065D01*
X95986Y264990D01*
X96146Y264918D01*
X96306Y264850D01*
X96469Y264787D01*
X96633Y264727D01*
X96798Y264671D01*
X96965Y264619D01*
X97133Y264571D01*
X97302Y264527D01*
X97472Y264487D01*
X97643Y264452D01*
X97815Y264420D01*
X97987Y264393D01*
X98160Y264370D01*
X98334Y264351D01*
X98508Y264336D01*
X98682Y264325D01*
X98856Y264319D01*
X99031Y264317D01*
D12*
X82300Y152970D03*
X90300Y152970D03*
D13*
X96800Y152970D03*
X101800Y152970D03*
X106800Y152970D03*
X111800Y152970D03*
X116800Y152970D03*
X121800Y152970D03*
X126800Y152970D03*
X131800Y152970D03*
D12*
X138300Y152970D03*
X146300Y152970D03*
D14*
X58100Y198930D02*
X58100Y210010D01*
X170500Y170010D02*
X170500Y158930D01*
X58100Y158930D02*
X58100Y170010D01*
X170500Y198930D02*
X170500Y210010D01*
D15*
X138033Y87407D02*
X134407Y87407D01*
X134407Y92933D01*
X138033Y92933D01*
X138033Y87407D01*
X138033Y90992D02*
X134407Y90992D01*
X122133Y92933D02*
X118507Y92933D01*
X122133Y92933D02*
X122133Y87407D01*
X118507Y87407D01*
X118507Y92933D01*
X118507Y90992D02*
X122133Y90992D01*
X109763Y87407D02*
X106137Y87407D01*
X106137Y92933D01*
X109763Y92933D01*
X109763Y87407D01*
X109763Y90992D02*
X106137Y90992D01*
X93863Y92933D02*
X90237Y92933D01*
X93863Y92933D02*
X93863Y87407D01*
X90237Y87407D01*
X90237Y92933D01*
X90237Y90992D02*
X93863Y90992D01*
D11*
X132080Y152690D02*
X131800Y152970D01*
X132080Y152690D02*
X132080Y147320D01*
X137160Y142240D01*
X139700Y142240D01*
X143510Y138430D01*
X160020Y138430D01*
X167640Y130810D01*
X167640Y124460D01*
X136220Y93040D02*
X136220Y90170D01*
X136220Y93040D02*
X167640Y124460D01*
X101800Y147520D02*
X101800Y152970D01*
X85700Y131420D02*
X85700Y96520D01*
X92050Y90170D01*
X85700Y131420D02*
X101800Y147520D01*
X107950Y90170D02*
X120320Y90170D01*
X174498Y158677D02*
X174220Y160750D01*
X170500Y164470D01*
X170500Y160660D01*
X157730Y147890D01*
X151380Y147890D01*
X146300Y152970D01*
X170500Y164470D02*
X170500Y204470D01*
X148590Y100330D02*
X148590Y87630D01*
X142240Y81280D01*
X129540Y81280D01*
X120650Y90170D01*
X120320Y90170D01*
X174498Y126238D02*
X174498Y158677D01*
X174498Y126238D02*
X148590Y100330D01*
X82300Y152970D02*
X78490Y156780D01*
X68330Y156780D01*
X60640Y164470D01*
X58100Y164470D01*
D16*
X16510Y173990D03*
D11*
X16510Y154940D02*
X22860Y148590D01*
X16510Y154940D02*
X16510Y173990D01*
X22860Y148590D02*
X64770Y148590D01*
D16*
X64770Y148590D03*
X133350Y110490D03*
D11*
X121800Y147440D02*
X121800Y152970D01*
X121800Y147440D02*
X124460Y144780D01*
X147320Y127000D02*
X147320Y120650D01*
X137160Y110490D01*
X133350Y110490D01*
X129540Y144780D02*
X124460Y144780D01*
X129540Y144780D02*
X147320Y127000D01*
X111800Y147360D02*
X111800Y152970D01*
X111800Y147360D02*
X99060Y134620D01*
X99060Y125730D01*
X101600Y123190D02*
X101600Y106680D01*
X102870Y105410D01*
X110490Y105410D01*
X101600Y123190D02*
X99060Y125730D01*
D16*
X110490Y105410D03*
D11*
X106680Y152850D02*
X106800Y152970D01*
X106680Y152850D02*
X106680Y147320D01*
D16*
X15240Y140970D03*
D11*
X76200Y140970D01*
D16*
X76200Y140970D03*
X92710Y124460D03*
D11*
X93980Y125730D02*
X93980Y134620D01*
X93980Y125730D02*
X92710Y124460D01*
X93980Y134620D02*
X106680Y147320D01*
X116800Y152970D02*
X116840Y152930D01*
X116840Y147320D01*
X123190Y140970D01*
X128270Y140970D01*
X132080Y137160D01*
X132080Y121920D01*
X130810Y120650D01*
X129540Y120650D01*
X123190Y114300D02*
X123190Y99060D01*
X100330Y99060D01*
X92710Y106680D01*
X92710Y124460D01*
X123190Y114300D02*
X129540Y120650D01*
D16*
X91440Y36830D03*
X74930Y36830D03*
D11*
X91440Y36830D01*
X75184Y105664D02*
X60960Y119888D01*
X50800Y119888D01*
X75184Y105664D02*
X75184Y63500D01*
D16*
X50800Y119888D03*
D11*
X101600Y37084D02*
X101600Y36830D01*
D16*
X101600Y36830D03*
D11*
X101600Y37084D02*
X75184Y63500D01*
D16*
X35560Y119380D03*
D11*
X48260Y132080D01*
X78740Y132080D01*
X79194Y132080D01*
X90170Y148156D02*
X90300Y148156D01*
D16*
X153897Y124687D03*
X163830Y143510D03*
D11*
X143510Y143510D01*
X138300Y148720D02*
X138300Y152970D01*
X138300Y148720D02*
X143510Y143510D01*
X153897Y124687D02*
X153897Y119607D01*
X127000Y113030D02*
X127000Y107604D01*
X137532Y103242D02*
X153897Y119607D01*
X138430Y120650D02*
X134620Y116840D01*
X130810Y116840D01*
X127000Y113030D01*
D16*
X138430Y120650D03*
D11*
X127000Y107604D02*
X131362Y103242D01*
X137532Y103242D01*
D16*
X78740Y132080D03*
D11*
X90300Y143640D02*
X90300Y152970D01*
X90300Y143640D02*
X78740Y132080D01*
M02*
