M48
;GenerationSoftware,Autodesk,EAGLE,9.6.2*%
;CreationDate,2023-08-02T18:06:48Z*%
FMAT,2
ICI,OFF
METRIC,TZ,000.000
T2C0.350
T1C0.600
%
G90
M71
T1
X5810Y20447
X17050Y16447
X5810Y16447
X17050Y20447
T2
X1651Y17399
X6477Y14859
X13335Y11049
X11049Y10541
X1524Y14097
X7620Y14097
X9271Y12446
X9144Y3683
X7493Y3683
X5080Y11989
X10160Y3683
X3556Y11938
X15390Y12469
X16383Y14351
X13843Y12065
X7874Y13208
M30